<mxfile host="app.diagrams.net" modified="2022-03-21T03:53:48.690Z" agent="5.0 (Windows NT 10.0; Win64; x64) AppleWebKit/537.36 (KHTML, like Gecko) Chrome/99.0.4844.74 Safari/537.36" etag="BgbcOd3pgrWuGtEzrEEP" version="17.1.3" type="github">
  <diagram id="6smf36iQxOBJFjTQhyz_" name="Page-1">
    <mxGraphModel dx="1422" dy="794" grid="1" gridSize="10" guides="1" tooltips="1" connect="1" arrows="1" fold="1" page="1" pageScale="1" pageWidth="850" pageHeight="1100" math="0" shadow="0">
      <root>
        <mxCell id="0" />
        <mxCell id="1" parent="0" />
        <mxCell id="9u2KphtgkhiFbMEUW20I-1" value="" style="shape=image;verticalLabelPosition=bottom;labelBackgroundColor=default;verticalAlign=top;aspect=fixed;imageAspect=0;image=data:image/png,iVBORw0KGgoAAAANSUhEUgAAAtgAAAF1CAYAAADSuZ2oAAAgAElEQVR4nOzdd3wc9Z3/8dfM7GzRaiVZxZbl3iT3Ati4gKnGlCQkgYRAQgK5kHKk90u9S+7ul5AeUknIQQgkEHoJLYAxYMAFd1uWJSNbtiTL6lptn5nfH7INTghgs/Ja0vv5eAijLTOfKdp5z3e/8x3D8zwPERERERHJCjPXBYiIiIiIDCYK2CIiIiIiWaSALSIiIiKSRQrYIiIiIiJZpIAtIiIiIpJFCtgiIiIiIlmkgC0iIiIikkUK2CIiIiIiWaSALSIiIiKSRQrYIiIiIiJZpIAtIiIiOeaBG+euX3yX93/0BzQATj/Nx0n0sObhW7j6beex8My385snXyLq/et3JKMtrLjpe7z9I99hc0Nbv1Qlg48v1wWIiIjIUOeB53CgcR+7dwdJAi5gZXsunkc63soTd9/LSz0hlp02n8kjil63tdHNJOhuP0DNy71E48ksVySDlQK2iIiIHAWPZCxGJp0Gn0kymcEOhAgEAxjpBIlUmozjYhgGWD5CwQB+28bAI5NMkEylSWWcg1MysP1+AsEA9puYbyaVIplMkMq4ABimhc8fIBSwMXFJp9P0JjLgZMAwsOwA+XlBTNMAz8NzMnS0N7Cv1aHqnEv46qfeSWF+CFIJehJJHM/D8zwwDEyfn3Ao+E9VOJkU6WSShGMQDAYI2Bae6xCPxUk7Dh4GYBAIhfDbNj7TyOral4FBAVtERETeJA9wefHOX/PTW55j0XkV/OXmlYw/7wN89Usfo7D6UW74vzt5fns9XjCf8lPO49MfeR+Lp0/A52XYu3EFf7ntdh5+sZpoMoETKmPhxR/g369+L9OKXqefBuA5aZprX+Kum37HX5/dRizlUTp2OsvfdzUfWn4y+WYXT/3xF3znsV4qre1s3NXDnPd+il985t1EwkG8TIruuvV86Uvf5pmXdpLaWMcHatbxnW9+kaLOHfzxht/x3M69dPf0YhWMZO5Fl/P1D19M6RFJyaN7fx2P3/xz/mdFN5/80le48owpxJqq+dOvf81Dz2+hI21RMGISV177ac5fOJMR+f7+3CByglLAFhERkaPgkeztpqNpB49sruBdV3+E8eOnYe59kW9953oK5l/AZ971QfyZDl6498/8+tYwwQ+/l5NLU9x6481sSldw9Re/RqnfZc9Lj3DfE3dy57iZfPltE193rtGmLTxw02+5q8bHlZ/6EiNCsG/T09z7y/9H/vCfcP4UP4lYlJqNz1K+7Ew+snwm5ZOnY9sHO5pYPvIqJnPNx68kdd3NRGcv54vvW065uZd7/nIb652JfPwzV5DnS9O49TluvOX3rDx7CcvGH2pb9+hq2skzGx7l96u6+dAnP8nyk8YQbWvmrz/6X+5vG8vbr/k8EyMG+zY/x+03/J6M/zNcvbRKF7wNQQrYIiIicpRcPMNizLnXcPVFkyiyOnnyput5st7luq8tY9GscVjpGKP9e/nm9c/wyKmnMmdxGf6KSZy94O2cv6ASy0kxtqiN1St2UL21jsz5415nfh771/2dBzfuY9Z7vsl7Lz6VwqBJy5wq2jZdyR8fWM1J/3YyngeOL8gl77+Kty2oImSa+O2+qGOYFnZ+MXPnzWD8qNEcmDCN0xbMIblvLfa4abz99NNZumgCPiPF7iIff7vxbjY09bJoVBGe65COdfDCX//A05ubmX755/jg2fMYFoQ9G/7Grfdu4IzrPsGZ8ysZEXKZPSafFSu/zz33ruTS06uIGBpVYqhRwBYREZGjZBIuHMXC02YTKTDxWuuo37MTz/N46u4/sePJMJ7rkIkfoKWlnm07mghdvIDPffkzbF69hof+fBO7GxvYVf0SG/Z1UJlM9PV9fk193VJ2ba3FNSPMXbyQgN/GNA0KhxVz2jmn8uDfqtnTMRnLZ1NUNoWxI0ooygu8qSWJjD+Vq64az7Y1z/PQX1exZ+8eaqu3sqEjwfCER8YFN52gvfoZfrgpSsWc5Xzk9IWEg37MdBedO2tY351k3JN3cuvGQixccOPsbWjCCldT73hM9xkK2EOMAraIiIgcJQPTsomEwDAA18N1THx5hQQsH36/H/Dw2yM55x1jmTJnLIm2eq776n+wsr6DUVWzmDJpChfMHIXV+TA9bzg/DyfjYnh9wfpVD2OZFobnkTEMfIaBzw7gs978hYUdu9dx+09+zP+tb2fm7OlMmlLJOdNmkqnZSeDQvEwbL1zGRz9+OQ1rN3PHzX/mvG9ehe0DJ5EE2ybk8xHw+w8GaT+LLnw7ZZPmU+wpXA9FCtgiIiJy1AwDLPPgv6EIZSVl+Px+ll92JfMnlmN5aaItO9lY08mwYTZNO9fw8No9zL3iU3z2PadRmBekfdu93O9kwHP7Gqpfe06AyYjRI8BrZE/tLjLjJ+KZJrHeXnZsqsEsfwfD80J0Q9/oJUdhzzMPcM+mJmZf8gU+f9EsivIsWupWcWc8TenBmkzLomj0HJa94wrMyQ/wX7+/j7s3nsMl04opGDmSkaF8TrrwUs6aMYFCP2Ri7by4Zju+svEU+fqWQIYWnVSJiIjIW2LnlTHzlLn4e7axrbYR0/ZjWw67/347N//1MXZ19JJKdYHtp2REOWWFYQJGmnUrXqCurQsnneZ1EjZgMnbhEqoKXJ669x4aW1tpa2+lfv0T3LuigVNOP5nyovxjqj3a3oVj2JSOGk9BJB9fpodtTzzOps4ksaSD47gYpkUwHKaopJw5Sy7kgokZbvjx/7GxJU5w4kLOGZ3hoZXVtKX7+nzHm7dw6x//yF3rm7AMBeyhSC3YIiIi8pZYgXwmLX4HP71mO7+5+fs8+gcLP0nanQhvu+paLlwwg+JEIUur7uPx67/CC3eMwO8kMcJFjBhRQHvXfjzPfd15FE08nWs+1kLHT/7IB9/7COGQQTxjM+Udn+CTy6YyMthDzTHUPmP5O1i0vp57vvsR1o8bgZFOkfJCnDSzmNbWTuLJVwd3k+IxlVx65RXc+akfct/jC/j0+87g2u98heuuv5kvXXUL4ZBNV2cP45dexrWXLSKEAvZQZHj/+qoCERERkX/gsm/7RnY2dDDu9LMYHTSwDXDSSXrbm6jeXsveA+04pk2oeBSzZlZRXhzB9tLs2bGRHbv20Zl0CQTzGDlmNEbXAZqcApYvmkb91k3s7jBZdO6p5PMPX7N7Dr1dHeytrWZHw34SjkF+cTkTJk9hQnkRPi9J464a1u5OsmThbEYUhf+5dM8jFTvA5vU7iReOYvGMsTjJKPv31LF+Wx0JF/x5RZQNLyMQ3UNL4WzmjSsk3VzH2j0plpw6m7KIn0S0jWefeA7f2GnMmzGZkNvLruotvLz3ANGUix0qpHLmTMaMKKEgpHGwhyIFbBERERGRLFIfbBERERGRLFLAFhERERHJIgVsEREREZEsUsAWEREREckiBWwRERERkSxSwBYREZEBLZVK0draSiqVynUpIoACtoiIiAxgnufR09PDmjVr2L9/Pxp9WE4ECtgiIiIyYHmeR11dHevWraOurg7Xff07QoocDwrYIiIiMiB5nofjOLz44os0NjZSU1OjFmw5IShgi4iIyIDkui7t7e3s3buXaDRKbW0t3d3dOI6T69JkiFPAFhERkQEpnU6zb98+otEomUyG7u5uNm3aRDKZzHVpMsQpYIuIiMiAFI/HWbduHYlEAs/zSCaTrF69mt7e3lyXJkOcAraIiIgMOK7r0tPTw5YtW0ilUhiGQSaTYe/evbS3t+e6PBniFLBFRERkwEmn09TW1tLa2nq4z7XjOHR2dtLc3KwxsSWnFLBFRERkwIlGo2zfvv2fRg3JZDJs3ryZzs7OHFUmAr5cFyAiIiJytNra2ujp6aGkpIRkMkk6ncY0TfLy8mhtbSUWi+W6RBnCFLBFRERkwCkqKmL58uXEYjFqampYv349M2bMYObMmQQCAYLBYK5LlCFMAVtEREQGnOHDhzN8+HBc18V1Xerq6hg/fjwLFy7EsqxclydDnPpgi4iIiIhkkQK2iIiIiEgWKWCLiIiIiGSRAraIiIiISBYpYIuIiIiIZJECtoiIiIhIFilgi4iIiIhkkQK2iIiIiEgWKWCLiIiIiGSRAraIiIiISBYpYIuIiIiIZJECtoiIiIhIFilgi4iIiIhkkS/XBYiIiMjg5Xkenufhum6/TN913SN+MpkMnuf1y7xM08QwDAzD6Jfpy+ChgC0iIiL9xnEcenp6aG9vx3GcrE/fdV1aWlpIJBK0tbWxa9cuLMvK+nxM06S4uJiCggJ8PsUneX2G11+neSIiIjIkZTIZYrEYq1evpqamhu7ubmKxWL+0LHueR09PD9FolGAwyLBhw/qlhdkwDEKhEJFIhBkzZjBv3jzC4TC2bWd9XjLwKWCLiIhI1jiOQ1tbGytXrmTV8y/iYmHZfixr4Lf6uo6Dk0lheA7zTzmJpUtPZ/jw4QrZ8k8G/t4uIiIiJ4ze3l4eeOABnlv1PFPnnsaUGadQXFZBIBjKdWlvWSqZoKO1mZotq3n0scfo6enmkksuoaSkJNelyQlGo4iIiIhIVniex6pVq9heXUPVnMXMW3QupeVj8AcCuS4tK2x/gJLhFcxbtIypcxZTU/syGzduzHVZcgJSwBYREZG3zPM8UqkUO3fuJOMZTJkxn7z8Qmzbj2EMjrhhGAY+208oHGHGyUsxfQHWrFnTb6OWyMA1OPZ4ERERySnP80gkEnR2dhIMRSgfPXFQ9Lt+LaZpUTislHBBMa2traRSKYVsOYICtoiIiGSF53kYpklepBDTHLwRo68lO0AwFMZxHNrb2/ttnG8ZmAbv3i8iIiLHzSstuMbBn8HNME3Mg+NtH7qZjsghCtgiIiIiR8l41X9F/pECtoiIiIhIFilgi4iIiIhk0eC8vFdEREQGHCfZQ2+0m46uOPnDR5EfChGwXnnezSRIxrpp64iSN6yEcDgPIxWloztFKBSmoCD/yAl6Hm4mSXt7G9FozyuPGyaWz08gr4DCgggBv+7EKNmlgC0iIiInhHTnTu6//oc8sqmRBZ+5nssXTacs75WEnY61sf6BX3Dj3S8w//1f5tKLTqN3y/386v9Wc8bHvsyFc44M2J7n4iZ6uP9X/8GKDbUEgwdveGPa+AtLmTjtDN528TsYV1GqkC1ZpYAtIiIiJwQ3FSPa0cy+hhqefmQFZ1VVUJZ36DbkHtED+9j89KM01rfR1dND2s2QTnRx4EALPb2xf56g5+FlUnR0dtEbHs9Fy5ccnFGGeEcT21b+mh/taeTDH/sop1aOOm7LKYOfAraIiIicEDzPBcMiUjaZ5Lan2dG4nFmj+wK25yTobKtm036XUieN6bl4eHiuQ8Zx/uU41B4ejge+sQu44J1XHJoR6VgHsycV8tvbnmHF9gsVsCWrdJGjiIiInDAsO0jJ2JkU08CubTuJu+ABTqKL5q0biY+YRcS0sN5wSq9iWNj+IAWFw/p+ioZRUFTKiNGT8fvSdPT0vPE0RI6CAraIiIicMAzLj108hVNH5RFv2MqeuIcHJDtr2F7Xzui5Z2L6/G9tBGrXJdm5j7UP30ZnooCqMSOyVL1IH3URERERkROIgekLs+Ds+dz90l62Ve9j8ryRtGx6kb2xAKcsqOSpW48yvqR6aH70B1y95U99v3uQcT3sYD6zL76WC2eNy/5iyJCmgC0iIiInEAPDsCieeRajNtxF9bbNvG16Hps2v4wzYjazKsI8Yx5l+7Vh4auYw+IzTzr8uz+viLKxlcyZdzLDCiPZXwwZ0hSwRURE5MRiGASHTWPimHxu27CaxDmj2dKYYfiykxhuw9Hma+w8SmedxzWf/ni/lCvyj9QHW0RERE4shoEZyGfUhCmM2LeGFTteoKWwkjmVFbmuTORNUQu2iIiInHhMm5HjKhkz7A4evPluRpz1ccaXFkGm9R9e6OEkumjZt4vqLclX3u7PJ5hXQGnAOb51i6CALSIiIicIyw4SDBdQHMnH9vnIrxjPjBnTee6RapZPGUdJQR5mt5/C0uHk5eVhmxY+fz6F+Wk23PNz6h8PH56WL1TK9GUf4r2LJ1JQUEhhQWEOl0yGGgVsEREROSHYRZM54/JrmWcOJxIK4DfHseDdnycyv5UpUycTtkyc8Fje/eXvEhhdScSXR17lMq753GTiqfQR07LsPIpGTsafX8B5l3+Shb6yHC2VDEUK2CIiInJCMAMFVEyeyXDXwPZZGJjkj5jAnOLR+G0/YGLa+UycuwDTZ2OaJhSNZvq8Ebiud8S0DMPEsHxYPpPRk2flZoFkyFLAFhERkROCYfqwTF51l0YDyzIJWa/EFcMw8QdDr7zJMglY9utO1+8/qvs+irxlGkVERERERCSLFLBFRERERLJIXURERETkLTMMA8MwwHNxM+k3fsMA5nkerpMhnUpgmiahUKivP7jIQdobREREJCts28bv99Pd1UYs2o3nubkuqV94nkcyESMRi5KXl0dhYWHfyYXIQQrYIiIi8paZpkkwGCQSiRCLdvHyjg04mUyuy+oXnuvSfqCZWE8H48ePxzRNBWw5ggK2iIiIZIVpmpx11lmMKCth6/pnad67i0S8N9dlZVUqGWd/Yz3P//0uigrCnHHGGbkuSU5Ahud53hu/TEREROSNxeNx1q1bx8MPP0Lasxk1YSolwysIhvJzXdpb4nkeqWSczvYW9r28nUy8iwsvvID58+cTDoffeAIypChgi4iISFbFYjGqq6u55ZZbSCRTWJYP0+qnsai9vvB7KM6Ypgn91FvDdRxc1yE/nMdll13G1KlTFa7lNSlgi4iISFa5rksmk6G9vZ2mpiba2ztIp1P9Mi/P62s139e4j7LSsoMXHPbLrLBtP4WFhVRUjKSkpATbtjV6iLwmDdMnIiIiWWWaJn6/n+HDh1NcXIzjOPRXe57ruuzevZu6ulrGjBnNnDlz+i30GoaBZVmHf0T+FQVsERER6ReHgnZ/ymQyVFdXs3//fvbu3cvChQsVfiXn9L2GiIiIDEie55FMJtmwYQMtLS1s376931rKRY6GAraIiIgMSJlMhsbGRnp6enAchwMHDrBz506SyWSuS5MhTgFbREREBqREIsH27duJxWJ4nkcikWDVqlUkEolclyZDnAK2iIiIDDie5xGLxVi7du3hFut0Os327dvp6OjIcXUy1Clgi4iIyIDjOA7Nzc3U19eTTqcPP9bW1kZrayuu6+a4QhnKFLBFRERkwEkkEqxfv55MJnP4Mc/zSKVS1NTU0N3dncPqZKhTwBYREZEBp7u7m/b2dgoLCwmFQti2TSAQIBKJsHfvXmKxWK5LlCFM42CLiIjIgGMYBqeccgrTp09n165dbN++nUmTJlFVVUUwGNRY2JJTCtgiIiIy4JSWllJUVEQmk8G2bXbv3s3kyZNZsmQJtm3j8yniSO5o7xMREZEBx7ZtbNvGdV38fv/h38PhsFqvJefUB1tEREREJIsUsEVEREREskgBW0REREQkixSwRURERESySAFbRERERCSLFLBFRERERLJIAVtEREREJIsUsEVEREREskgBW0REREQkixSwRURERESySAFbRERERCSLFLBFRERERLJIAVtEREREJIsUsEVEREREskgBW0RERAY0v99PXl4egUAg16WIAGB4nufluggRERGRY+F5Hl1dXRw4cIDi4mKKi4sxDCPXZckQp4AtIiIiA5rruhyKM5Zl5bgaEfDlugCRwc51XXp6ekin08TjcXROKyIyMBiGQTAYJBAIkJ+fj2mqZ628OQrYIv0sHo9z1113UVdXRywWw3XdXJckIiJvgmmaRCIRqqqquOSSSwgEAup+Im+KuoiI9JN0Os22bdu4++67aW1tpaioiMLCQmzbznVpIiLyJqTTaTo6OohGo5SXl3PJJZcwceJE/H5/rkuTE5wCtkg/qaur45577qGxsZF58+YxYcIEioqK8Pn0xZGIyECQTqdpb2+nrq6OTZs2MWHCBC699FJGjRqV69LkBKcjvUg/8DyPJ554gqamJpYtW8a8efPw+/36alFEZIAZNWoUkydPpqSkhBUrVrBixQouv/xy9ceW16W9QyTLXNclHo9TV1dHRUUFs2bNwrZthWsRkQHIMAwCgQCzZ8+msLCQ+vp6otGoLliX16WALZJljuPQ1NREOp2mrKyMUCiklg4RkQHs0MWOBQUFJJNJWltbdcG6vC4d9UWyzHVdOjs7cV0Xv9+vcC0iMsAZhoFlWYTDYVzXJRqNKmDL69KRX6QfuK6LYRjqFiIiMggpXMsbUcAWEREREckiBWwRERERkSxSwBYRERERySIFbBERERGRLFLAFhERERHJIgVsEREREZEsUsAWEREREckiBWwRERERkSxSwBYRERERySIFbBERERGRLFLAFhERERHJIgVsEREREZEsUsAWEREREckiBWwRERERkSxSwBYRERERySIFbBERERGRLFLAFhERERHJIgVsEREREZEs8uW6ABGRE166F7dnL6u3NtIRTbzGCwzAZtrM6YwbMxLjOJfnxLvpPtDA1l1NpAtGM2L0WKYPzzvOVRwbz02yv6mR9ZuqDz9mmBY+O0Tp6HFUlJcxvCCUuwLdDE379rFrdyNzT55LXih03LevCEA60Uv14zfws4fjXPG1j3L26NJclySvQwFb5Cgkk0nS6TQAeXl5mKa+BBoSPAd391P86icPsrczRjqZoG3vXqyS4eQXRAiZJpDPB77zE64aDcZxTmBd+2v5889+wMM7WrGnLOXKj147gAJ2nPUP/YmP/s8fGD2qglAwgGEamHaY0nGVnHz6ci4+dxHjS/OwrRz8vXkubRsf4Es/eJKb/3wDkxSwJUcyqThdjXXU1js0tnaDAvYJTQFb5Ci0traycuVKCgoKWLp0Kfn5+RjHO03J8WfnY824kp/f+F4c16N93w5+fOVVpN52FR/56HupDFl4GORFCjBzsDs0bF7N7x6r4T//8H8smjaRwrzw8S/imHm4nocZHsm3f/xb5k8ZieemcWMH+NV3v8FN161izd7/5lefPI2SsD8nFToZh2Qiiet5OZm/iAw8CtgiR8F1XZqbm3n66adZuXIlY8eOZeLEiUybNo1Ro0Zh23auS5T+YBgYdoiCgiAe4EYj+E0TgnkUFBVRFLIAaNm+hrW7dlO+ZB4v3Pc0FE/g5KVnMm2Yw4ZnVrBx6w729yTJLxvD4tOWMHvKGIxMmufvu5N4fjnTJg3jqcdW0kEeE2efxFmnnUQeYJCmafcOVjz5NPvak+SXjWPGnFNYPGsMGx5/gMfufYTW3h4evv02jHe9h7OWzMYXa+PJx5+iZvcBjHAZsxadxdyJJRQEffR2tXPXX+6kYuJoQqkOXtwV44KLTqJ+Vw+tThGV6R1sqm/BKpvEKaedwRSrmeeee5HqpiiRcTO4aOlJlBbmgefgpXtY9dRTbK5pIOUvZPaSs5kzqZxhQR+peC933fkohSV55Pc281K7wfkXnM/UceWvsYot8gsKKSoqAs/DKyriE1/7LoGf/Jjb/34TTR+cS1G4GDOTJNXRwONPPUd9czd5ZeNYdO55TBgWIOgzwHNxU9289PxzbNi2iy4nyJzTz+WkyjEU5/kAl8YdL7Fu/WZ2NnZRMHwii5csYOqE8oMXJXl0Ne9i87rVrK1upHzqyfgPRI+o1Un20rm3mieeWUdzNEPJmCmcvewsSoM+zHQnTXu28EhdASMSu2hracU/eg7nnz6T4kgOu7rICSfT2cD9N/6KHzzezH/96NssnlDIgU1/59PfuoUlV3+OL7zvLGy13wxYCtiDXDweJxaLkUi8Vr9ROVoHDhygq6uL7u5uuru72bdvH1u2bGHDhg2MHTuWqqoqiouLSSaTuK6b63IlawwwDMy+HI1pmpjGwX8tC8vqe6KnuYa7b7qdwPpn2bl+D/kTljL6pHk03v077lv3MklfECvZQ9cLK9iw/WWuuPrfWDqpgI1PPMDDHUXMGxuivTNKrLuFVatXs73tE1x7/kzaX97A3bfcxNoOCNsmyTUv8OLqzXjf/DJeIsa+zgR4GVI9nXREE3S21HLTL69nQ1OSYLiQZPdGnnv6Gc696tNcuGAyoWgb9/zpJvyTphFKdNKW9DFrQRmP33onG+NFzC41iad72Ne2ipXrtzO7KMHOvS30Njewt/sRvML/x8WnVuKL7+eh31/PkztasMIFEI+x7sWXOP2DH+NtCyqJxKPc9+c/YZcXYPREaU3lMWvpeUz9F6vYNM3D6xJ8DB83lQvOm8+DT93C5rYoY0rySDdu5g8//x01PS75kQjRjVt49vmNXP3pj3PS+GLMeDsP3PQbnty0CyNUgJuIsXbNZnZ9+N+5ZP5onJ3P8Ls/PsDWliRlBQGSG9axcdt2Lr3s3SydPYnE/u08dsst3LW+keJhRdTvfpmu7jZSB6tykl00b13JL359F61ugIKIn42bNvHcxjo+/bH3MS6SpGHLCn7z1w5mug10py0qFlWw7PR+3kVlwDGCRZxy9hmMvPOr3PbAU4SXjOXJm29lf+nJLJo3RaNQDHAK2INcR0cHDz74IC0tLZimqe4Mb1E8HqelpeXw767r0tXVxebNm9myZQtPPfUUo0aNoqqqSgF7CHLdDB1Nu3k+Oo6ff/fbTBkxEiNRzzduvocJH/o6H3nvMsqNGM0rf8Unf/oSD05awumT5uOk0+zZsJYRp3yZH33jQmh+nh9/79fc8dvbee9pk6lZcS9PrGvj8zf+klmFIbqqV3Lrr2/m/u29fP7sS7gq3cITdd186otfY864MI/d+luuu2M13/3t73nXgqkkm3Zww5c/ym1/vpPy8n9ncYFHKhWjZneCD33qC7y/yk+kJMbfuvezvyPFRT+4gZOHZXjqN9/jkz/7DXs+8J/84EsfY0TvDn75yQ/zyIZdLJg+mvS6J/mPXz/INd/7BR+5aAH+nhZu/WdRExwAACAASURBVM6nuf+22ygu/yLLyzySyWa2NRTwia98gzMLDEaOLXrT69OwfOSPqGCsEWdLU4rFI5p55q9/4YZnW/jVb3/IkqkVtNau5etXf4zbJ1ZR/sHzsWpf5Lqb/sayT3yDz77vLMKpTn7x5S+w6u77mDbuXbz0n1/nmaLz+ffPfZQLp5UQq3+Gb33r5/z0Dzan/PBaah/+E7c+U0vVpZ/lW5eeQs/Ox/nxf/+IBGE8POLN1dxxy194bP9Ifv+jzzG9IsyudY/zsY9/m/unVnHV8qk46QTR9Y8RuurzfP5dZ4GvgIJgbrq3yInLCkYom3QKX/r4WXzjD7fzw40RGrZH+eyfrmX2hGIsHa4HNAXsQa6pqYna2loikQhFRUWvah2SY9HT00NHRwcA3qv6YxqGged5hMNhRo0aRTAY1MnMEBUqGcXij32dudNLKAv7ScfDfP36X1M4tpIR+X7cRC/xSCH+VIJERzsAHjCmcgHvu/IC8sNBzPEnMaNyEvftaCCVdgjYAZIt9dx04+28/+LzOWnyYj7x3zNJR4ooCfloNk0MwLJ8ePtrqKvZQWDpZ1k8bSKRYID80RP5zPc/x7pPPsSmTdtYfFoZAKeecTaXLz+Zcj8Y8Q0YViETKpcwvzRMvt9g4uTxVERK+Pxli5haMQzaKli+eCzXRaNEW+pp2r4aZ+oHOOvk6ZQEg2CXceXnr+D5rz7K+hfWs/ztU8H0UXnGct5/+gxCpoHPd3SfQZZtE/R5dMZdWrdtZsv2ekrf80Wqxo8iFAhQPm4a//vpM/jYc7Vs27qT8l0rSY+7iLMXz6M0L4gRGs6/fe3bNMc9zAO7uWlzNx/433M4Z8YoAn4Te/IZLFvyNDc9up5VHT28sGI7+aNP4rKLTyEYDBCsXMq7LnqJJ369GgOP+g2b2LGrh3P+/UeMqyghEDIZO3UBX1xawm3b61ly0gQM00eg4CTOOvM0pk4Yg2EY+JSW5DUEwgXMe/u1nP74x/nLmloWXvUtzh+bT4Ff7dcDnQL2IOc4DoZhMG/ePObOnYvfr1aUt6K5uZl7772XtrY2DMMgEAgwbNgwxowZQ2VlJVOnTiUYDLJnzx6NMDJE+YP5jJ5USiDgxzINEhmXdGsdd9//V+oORMmQIRSM0uJZlDuZw+8LFZdRXhLq63ZihrH9QTw3g+fC1DMu4Yqmbh7e/DS/WvcYXqSUU5YuY/k73k6e3+obtqSvFwvJaBfdvTH802eRFwhgmQb4/RSMm0WReSetHd1AGRgGJSXDKQ8HsTwXzzDAChAuLCbgM7FME8vyEbBtKiIhgraPjGUSzsvDdT3SsShd+xtwmnbyP1/eTHlRsK9PdqaL5l4/Y9NJAAzDZGR52bG14HoeqWSC9qTJ+CKLdE87XS37aN37K764KUhhwMTLJHC6m0iHiokneom27scbOYfSUAjLNAGT0vFTKHEy7Hy+mo6MTXFZKZGg3XdS4g9SWjKCAq+a3W0pXm7txRo1koqCIKYBRiBEwbhxFPtWY+LR1rGfluYGqm/8Op+53SBkQSYRI9qUJlYQw3AdMEysYaMpLQjht9WoIf+a5zpkEl20difpjkZpaqgn5WbQ5bQDnwL2EODz+YhEIpSUlBAK6SKbtyKVSjFs2DBKS0spKSlh7NixTJ06lTlz5hAIBDBNk1QqRWNjo1qwhyjLNMgPGQdHE8nQ0bCZ73/je/SMPYlTTpnFpIljmDUpxt6X7oJXHUYtA3yHz8lM+sbW7nveHjacc6/4CIsPNLJy1Qtsr9nGqnv+wAvdZfz83xYdMX/D58P0mXjRHjyvr5uS57p4iR7SmPgCr3zs+yw44rJc08Kw/iEIG69U0zf+4MH92jD7vsIuGMviRTMZXhgCz4V0LzPSBYyfMOLwBOxjbL31UlHad2xnr1XIVeUBCjI+LDyGT5zDkllF5AcsPCdNJtbJ3ILpjIoESNt+vESMjOv0TcNzSRzYw55uhwMJsHBJpzNkPPAbXl+Id9KkDR/BgEnIb9GVTBDPeHi2AR546QyHOnxZlg/PsRk16yQWDfcT9Bm4mRSxzukEp80h3zaIGgZGIIhhKlzL6/AcEr3dPHvvbWxNVbD83TOpXfcwt760jKsXTKI0X8frgUwBW+Qo2LbNnDlzuPDCC6moqDgcqkWOcDhPxmhs3Mqq5kJ+/LOv8K4FkzEzMdwtN5HMxAHnTU1uxV+u5/HGCL/8ny8x+dSzcWMNPPHXG7jq+kdoeud0gq96bbhsOCOKi0iu+Bs9H54Ow0J46QTxDY/Q5BZxSunwrCyir7CQ0omVmA+2seSid3PG1FGQSeLteoTv3FxDZ+VRHF7+RXOd27aVJ1euwx0xmbmF+ZS5ZZSPHUvaquSdl53H+NIw6Wg7jQ99n+sbuzi5cCpFEyZj3b6Gpu5zgVI8J0Pd/b/m/73Qy8Sz3065F2ffgf10ujDcBM/NUFtfT6OvjFmjw/SOzeeRll1s3J9m7Cg/uA776uvZkwEHi5FlI6kYU0TrmPN4z6XjGRHxEeto5qkffoX17Sdh+cZlZf3KEOAk6ah9jm//5+2c/r0bufr0kaz67X/xg+/+mKqffIt3zB2f6wrlLVDAFjkKxcXFnHrqqX19Kn0+hWt5AyHywyMo9Bp44L77ie0ejdW1jycff5TtzZ2UJJNvaipTKkp44IEHuPbbPhZVDifZ2cCqp9dz2gf/gzGlRRx41Wu9gomcfMpCptz7M677QZAls8dgRRt45I67qLrwM1y4YCJkmt7ykhmBMqbOWcr8vK/z8+//lM2LplHsi7LygbvpnHguZ08bDby50Ys8zyEZbeX2P97I8yVhXNch0d1B3dY1NBkjuebLn2XEsDCB/HksWbiA+3/8A3740zrmTirGba3lnjv+xuyPLGTiqFH4fUuZX/AQN/78l+xaPJMSp51H7ltL/sIruOLsuZz75Uv48b23cN3eWuaMLqF154s89HwLM955DVW+EKVXXcnmH93Cjd/5Fh1nzqO7fiN/+9uT5FGCAVScdBqnnbqF6274HD9rv4gpxTZdu9Zz+0M7ef+3I4yM+Oh6y2tXBj+P5tqX+PMNN5FY+B4uWjSTcaMiFFx+Jfc/+Q3uvf8pJo98H9NH/HMrdkft43z13U/yw1fd4TQ8rJxln7iOz75tKkV56gp6IlDAFjkKGudaAILhfMbPnktPyTAir+r+EBkxmvKxExgZNOm7RslHReWpfOHa9/DirhpWrnyZSF4eY894L5eXPEd3cQTTtBhTNZWRnRXkYRxs/DYYXlbKrFnTCAT8lJ98Hh+4wuEvT23luZadeI7BmIUX847LTqY4HICyMmbOmk0gEARfPuPmn8fXvxjl0dXVvPjsbvzhMBOXX8MV7zuf8SMiuG0dzJg1i9KyvosdMQwMq4CKkSMonDi8r++yYVAyfDhTZ80kGAj09VcO5hOuqGRyqoDhBfmUFSzkq1//LI898xIvvbCKUNCGSWfz4fdfwqzRhVi9DtOmVjKs4p/HvT7MsCkuLmPO1PHs2b6BfZaJ53q4Pj/DJy7mmgsv5IwlMwjYJpZdwuxzL+WrvSme27yL55q24veHqHrntbz//IWURcLgm8m1n/sEjz29hk0vPEfQtqlYehmXvfMcKsuGMemKa/lQ+AGefH4jz+0JknYsLrzyGs48bT5B06J8xhl8+GMmd9/1N154diX4C3jnFRex/qVuQgE/oWFjOfuyDxPzbmFj3Wae25rECuZzwUe/wNsWTqMgz0+4oJxpE6GkaGDcTVNywx8uY/Gl/0ZVZBqzRhWTnxfAN20p//Htb9I9bAoh+8gGHJ8/xMTTLuObkQW09sSPuKNoMFLCuOnD8anR54RheJ5uTTWYrV69mvvuu4/zzjuPBQsWqA/2cZBMJtm0aRO33XYbCxcu5Lzzzst1SZJlnuuSyWQwLN/hMbEBXCeD6wGWhWUcDMueh+c5ZBwX1/MwMLF8PlzHATxs2yaTToFpYlq+w2PfOo6D47jYtg/DMHBdFyeT6ZuGYWJaJr6DowL1vdbBtu1X+v57HpmDrwejb7xu0zg84k06ncZ61Rje4JJxPFyXwxfmOY6D6zj4Dk7X81w818HBwjQNLMPom4+TwXU9PMA0LSzLxDz4XCqTwTRfqfU11iaO07c+j2AYWJZ1cP0aR7z+lWXj4LL5Di7bq6aZyeC4Lh4GluXDMs3Dz7uOg+s6OF7fRZiWZR68IPKV7eu6fevfsKy+Liyee3g99G1Tl0zG6evdYvTNwzQMDA4+54BpmX0Xmcqgcccdd9DQ0MCll17KjBkz1Ogi/5JasEVEjpJhmvhsG3h1qOsLl4cuBjz8sGFgGBY+45WAaRgG5qt+t3x9B+lXR7G+0UReGbveNE2MIw7mxr987aH5Wj4f1qt+Nw7/r/EawcDEMj2sVzWAWf8wXcMwMUyjr539lYn1BdhXZvTKOjEMbN8bHWYMTNP8lyMc/fPFwsbBZbNfc9kOT9PyYb5WTRxcl6Z5xPuPePfBUH/kNYrWK7UYBoZh4ntVC+MrdR58znit2kVkqFDAFhE5Bq8Znv4p6B1+4h8z3BHvf61pvdnHjuXxNz3911qe13jsaOdzLK852ve87vP/cjsdTU3/vE3f3HMiMhSos46IiIiISBYpYIuIiIiIZJECtoiIiIhIFilgi4iIiIhkkQK2iIiIiEgWKWCLiIiIiGSRAraIiIiISBYpYIuIiIiIZJECtoiIiIhIFilgi4iIiIhkkQK2iIiIiEgWKWCLiIiIiGSRAraIiIiISBYpYIuIiIiIZJECtoiIiIhIFilgi4iIiIhkkQK2SD8wTRPP83BdN9eliIhIlnieB/R9xou8Hu0hIllmWRYlJSWYpkkymVTIFhEZ4A41mMRiMSzLIhKJKGTL69LeIZJllmUxevRoAoEA7e3txONxhWwRkQHMdV26u7vp7u4mEAhQVlamgC2vS3uHSJYZhoHP52PChAk0NDSwdu1aMplMrssSEZFjlEwmWb16NZ2dnYwfP55wOIxhGLkuS05gvlwXIDJYLVu2jO7ubp544gkOHDhAVVUV4XAY27ZzXZqIiLwBz/NIp9N0d3ezbds2qqurqays5Oyzz1a4ljekgC3ST8aOHcvy5ct59NFH2bx5M3V1dRQUFChgS7841EfUMAx9dS1DzqGLD4Gshd9DAburq4tkMsnkyZO58MILKS0tzcr0ZXBTwBbpJ5ZlMWvWLKZOncqOHTvYtm0bDQ0NxOPxXJcmg5DneXR3dxMMBgkEArkuR+S4cl2XeDxOKBTK2gmmYRiEQiGmT5/OjBkzmDJlilqu5U1TwBbpZz6fjylTpjBu3DjS6XS/XfDoui4vvvgipaWlTJ48eUgeCHbv3k1hYSGRSATLsnJdznHV29vL73//e2bMmMG5556b63KOO8dx2LZtG0VFRVRUVAy57R+Px1mxYgXz588fci2snufR1NTEI488wvz585kxY0ZWQrZhGBiGgW3bBAKBIfmZKsdOAVuknxmGQSAQ6PdWxUwmQ3NzM6lUipNPPhm/39+v8zvRdHR0sHv3bmzb5pxzziEvLy/XJR1XmUyGnp4eGhsb8TyPsrKyXJd0XLW2trJz505GjhzJ9OnTh1Qrvuu6tLS0sGnTJmbNmsWwYcOG1AmG4zg8++yztLa20tnZSUlJyZBafjkxqaOeyCDgeR6pVIo9e/ZQXV1NT0/PEX0Sh4J9+/bx4osv8thjjxGNRnNdznGVyWRoaWkhFouxe/dutm/fnuuSjru6ujrq6upYv349iUQi1+UcV5lMhvr6evbv309dXR3JZDLXJR03hz77NmzYQEtLC9XV1WQymSH3+ScnHgVskUEgmUyyY8cO2traaGpqYu3atUNu7O1DAaOnp4eWlpYhtfwdHR0888wzJJNJ2tvb2bVrV65LOq48z2Pbtm00NzfT0dExpAImQCwWo7a2Fs/z2Lx5My0tLbku6bjJZDI0NjbS3d1NOp2msbGRvXv3kk6nc12aDHEK2CKDQG9vL3//+9+Jx+NEo1G2bt06ZFpxPM8jmUyyZcsW0uk0juPw8ssvD6mLSdvb29m4cSOZTAbHcdizZ8+Q2v6ZTIZ9+/YdMaRab29vrks7bvbv3091dTWu69LY2MiePXtyXdJxk0wm2blzJ729vXieRzwe5/nnnx9Sf/9yYlLAFhkE2traqKurI51Ok0qlDrfkDYVWXMdxqKur48CBA3ied7g1s729PdelHReu61JTU0M0Gj28vdva2qipqRkSrXiHuke0tbUdHlZt1apV9PT05Lq048J1Xfbs2cPevXsPj6SxceNGUqnUoD/BOhSoX3rpJVKpFACpVIpNmzbR1dWV4+pkqFPAFhkEDhw4cETAikajNDc3D4k7SKZSKZ566ina29sPjwW9ceNG9u7dm+vSjotD/a7hlfF/u7q6uOuuu4ZEK248Huexxx6ju7sbwzDIZDLs2LFjSGz/Q9/e1NXVkUqlMAwDx3FoaGhg3759g/4E2/M8Wltb2bJly+FuQY7j0NbWRkdHR46rk6FOAVtkgDtw4ABbtmw54mAaj8d58sknh0QrXjKZpKmpiUwmc8QwWjt37sRxnBxWdnxs2LDhcP/bQw71RR3s29/zPLq6uo4IWMDhkDnYTzA9z2PPnj3U19cf8Xh3dzfr168f9N9gJBIJNm3aBLxycnnopKO2tnbQ7/9yYlPAFhngOjs7qa6uPiJgpVIptm7dSldX16BuxUqn07S3t9PW1vZPYbqmpoaWlpZB/zV5fX09HR0dh8f9PRQ0EokE+/fvH9QnGYf6Xvf29h6xn7uuy65duwb9xX6u67Jhw4Z/aq2Nx+Ps3Llz0AfsQ0MzHhqv+tCP53ls2bKF7u7uXJcoQ5gCtsgAV11dTSwWIxgMYpomlmVh2zau61JXVzeoA1YymWTbtm14nodt21iWhWma+P1+YrEYW7duHfQB2+fzMWnSJCZNmoTf7ycSiVBVVcXkyZNxXXdQt+ImEgkaGhrw+/2Ht79hGPj9fvbv3z+oL/Y71FJbU1NDKpXCtm0AbNvG5/PR3t5OIpEY1Pt/R0cHBQUFVFVVMXLkSGzbpry8nKqqKiKRCJ2dnbkuUYYw3WhGZIALBAIsXLgQx3HYsGEDfr+fqVOn4vP5CIVCOI5z+OA72GQyGVKpFAsXLqSzs5Ndu3aRyWSYNWsWeXl5+Hy+QR0wAC6++GIymQzt7e389Kc/pbKykg984AOHb3Dk8w3ej/lUKkVeXh5Lliyho6OD2tpaTNNk1qxZhEKhQb3shy7onD59OhUVFXR0dLB+/XoqKyupqKjAtm16e3spKioatH//06ZNY8qUKaTTadauXctjjz3GaaedxtKlS/H5fIN2uWVgGLyfPiJDxJIlS0gkEjiOQ2NjI8FgkIsuuohgMEgoFBrUB5lQKMRZZ52F53ns27ePnp4eUqkUF1xwAZFIBJ/Pl5VbJp/IQqEQ0Neab5omgUCASCSS46qOj/z8fJYsWXJ4aMYDBw6Qn5/PRRddRF5e3qC+m6lhGEQiEc4991xSqRS1tbVs3LiRuXPnsnDhQkzTJBQKDeo7Gvr9fvx+P67rEggEsG0bv99Pfn7+oF5uGRgUsEUGuHA4TDgcJpPJYNs2oVCI4uJigsHgERf9DUavvgV9d3c3wWAQ13UpLCxk2LBhOa5O+turt39rayvBYBDbthk2bBjhcDjH1fUvwzCwLIvCwkIcx6GgoADDMMjPz6ekpCTX5YkMeYO7aUdERERE5DhTwBYRERERySIFbBERERGRLFLAFhERERHJIgVsEREREZEsUsAWEREREckiBWwRERERkSxSwBYRERERySIFbBERERGRLFLAFhERERHJIgVsEREREZEsUsAWEREREckiX64LEJFXeJ73lt/red4RP4cYhvGmp3U0r82mt7r8r7UO4NiW53itA9d1icVidHV1EYvFjnk6XV1dpNNp2tvb2bFjB6lUilQqheu6mKaJ3+/H7/djmm/crmIYBiUlJeTn52Pb9jHXdLSyvf0P/f/Rbstc7P/Z+Nv/x98Hwt9/Op0mGo3S1dVFJpM5pvXgeR779++nt7eXtrY2ampqSCaTh6dnWRbBYPBN78vhcJjCwkLy8vJy9lkoA58CtkgOeZ5HJpMhGo0Sj8fp6ek55gOt4zj09vbiOA61tbX4/X5SqRSZTAbDMAiFQm96WsFgkHA4TCgUIhwO99tBxvM8EokEsViMeDxOb2/vMS9/c3Mz0WiUVCrFyy+/TEtLC8lkEsdxsCyLQCDwpqcVDocJBoMUFBRg2/abCqVH69Cy79y5k61bt9LW3kZvLAoc27pOpVL0xnpp2NvAHbffQSKZIJVM43kepmkSDIUIBoNYb7AsHuB5LiPLy5k+YzqVlZUUFBT02zo4tO0TicRb2v4NDQ3EYjE8z6O2tpZAIEAymcR1XWzbPqoThfz8fEKhEJFIBNu2+23/dxzncMCMxWLHfILlui4NDQ14nkdTUxM7duw4vH95noff78fne3OHe8MwCIfD5OXlkZeXRzAYPKaa3kg6naazs5OtW7dSX19PW3sbGSdzTNPyPI/Ozk5i8Rhr1qyhtraWRLyXTCaDaYLP8hHKyyPg97/htvQ8j7xwhOKSEk4++RTGjRuH3+8/prpkaDO8t3LaLCe81atXc99993HeeeexYMGCowpZ0v/S6TQNDQ3cc889VFdX09vbm+uSDhs9ejTLli3jzDPPxOfz9UvIyGQybNq0iQcffJDa2loymWM7wGabz+dj1KhRXH755VRVVR1VOH+zHMfh2Wef5YYbbsDntwiGgxSWRTjWgO15LsneJN1tUZyUi98OUpBfgm0fXUByXZee3nYSqV6CAT+nLz2dSy65pF8+O9LpNGvWrOHRRx9l586db2lar26pfivfXAAEAgEmTZrEFVdcwahRo/pl+wP09vayefNmHnro/7P33vFZXFf+/3vK05t6F5KoAlEEBoMBYzu4t8SJW7qT2Cmb7OabzSa73mRTdn/JphcncYpTnLpuca8YY2PAgBEdAUJdqPent5m5vz8kYTDENugRavN+veSX9fDozpmZO3M/99xzzn2GlpYWksnkqNs8V6/1yX9jsViYP38+N954I3PnzkVRlFHbdTJCCPr7+/nd735HzbEaDHScHgdO37l7jHVNIzwYIeyPYFVlvC4LuZlObJZ3brsANM2gvSdMMKLhcvv413/9V0pKSkxPtslZYwrsKY4psCcuwWCQPXv28Mwzz5CU4niz3Vido/OUxEIxOpt6iIc0stIKSfNmoyhnv8RvCJ1gqJe4FqB8/jxuv/120tLSUjrIaJrGE088wdZtW9FljeySDGRldF7SsD9CS3UbDpubzPRCPK50zkWwanqCcGQAjTBXXHE5l112Wco9eVVVVTz8yEPEiTF/9Rx8OaPzEifjGodePUJ/c5iywkWUFC5AUc7e+yqEQBg60XiYuubdRJK9fP7zn6e4uDhlXmwhBMFgkIcffph9+/ehOmXSC9JQ1FG0LyA4EKKtphObxUluVglOh++cmtL0BMFwL0KKcd3117Fy5UpcLte523YGOjs72bBhA3v27cGeZsWZ5hjV+Ru6QSQQpbOhB6vsIi+7FKvFztn3f4Gua/QOHsflsXH55eu59NJLUyqyg8Egm17exLPPPUtZZTFF5fmoVnVUz38sHOfwq0ewRMK8/7q5ZKbZURSZs+2yQkAyaVDTNMAzm1sonFHOLbfeRkFBwTnbZjI9MUNETEzGifb2djZu2ohuTbBg9Vw86S4stnOPdxWGoGF/M/2tIfIKiphbuhy73YUin/3AKIQgHPFT27yHXbuqWLFiBZWVle94mfntiMViNDU1sXXrFnAIFq+dT1qOF0k+dwGvJ3Xq9zYhSRLlsy4kP2cWdqvz3NrSNcLRAIdqt/Hath3k5ORwwQUXnLNtZ+LQoUMMBAa46D0XkJ6Xhmod3bWNDXuvva4sSgoX4HVnjqo9tzMN3dDYvu9xGhsbyc7Oxuk8t+t5mq2xGEeOHOH1Xa/jyXUx/6I5+LK8SKPQ14YuqN5Sg9XiZGnFejJ8+dis5zYp0rQk4aifvYc3seXVrZSVlVFWVnbuxp2EEALDMHj99dfZf2g/vkIXs5aVYXfZRiWw49Eku1/Yj8+dzcLZF+N1Z6HIKmc7JxYChNAZCMzkQM1mNm3axEUXXYTdbk/ZBKunp4ejR4/g8NkoWVSEJ8M9qvaEEMQjcZLROEvnZDKvLB1FGZ0zwG5X6OmPsv3gULiZKbBNzhZTYJuYjBMHDhygb6CH5ddXklmQjqKOzkNk6AaD3QEskpMFs1fhcWWOyuNst7nQDY327jraWtuoqKhImcCORCJseHEDSZFk8er55M3MGX2bgSixcBxVsVKUNw+3M21U7dltLspnrqDq4AscOHAg5QI7EAjgyXSTVTy6+zSCoRsYuo7T5R21uAZAkrCoNlTFSmNjE4sXL06ZwA6Hw+zduxdZlViwei45JVmjbjMeSRANxfC40snLKsVuO3ePs80KdpuTpQvWU3XoOY4cOZJSgZ1IJDh06BCalKBi7RIcHseoJpcIiIXidDX2UDF7DZlpBcPe63PHZnURDPXT0F5Fa2srpaWlKYtF9vv99PX3kVOSNSqnwgkERIMxJCFI86YmnMduVSkp8LLz4AADAwMpadNkemGW6TMxGSf6+/uRLTJunzNlnqFkPInD5sZuc5+15+pM2KxOZFnB7/cTjUZH3+Aw8Xic2mPHyChIG7X3aoRkPEkiqp3w3I0WWZbJzijGYrETj8dHVeXhTOi6PrqQiPOAIivYba6U9KWTicVidHR2kFmUjtObmrC1WDiGltBQldQkpUqygtczFMMeCARSYOEbJJNJ4ok4abm+0YtrhpOlk0P5C067F4s6epEpyzIupw9VsXH8+PGUxIePYBgGhjCwu23Iozz3sUKSwGZVFMboMQAAIABJREFUJqx9JhMf04NtYjJOGIaBJEnIqnKueW1nRJLkYY/o6BuVJAkJ0A0jpQJTCEE8kcBiU0ftuT+5TWEI5BSI6yGkIbEmySkX12eNMDAMA10zQJKQFQVZkVPZbf4BUsr60skIMRTna3VYRh13f3KbQjA8GUhB3wfk4WfJMIxRtzfCG31JYLGpoxbXb0aW5ZTlSkiShCTJ51w+7604ca/egalCCAxNxxj+I1lRUEZ53QzdwBACRVXexgRTYJucG6bANjEZZ97J61sYAiEMThnjJJCGB9NJOwRInEOMqDhR23l6ZPYbDHT10njgKG3dIVAspJfNZuacXPIzHJP6Grxj24XAOFHbWhoWflLKPesTHiEwDIEkS5P6vp8NejxGpL+bgzuO0ReIgdtL8byZzJubh82qnv0yvBAkNYOe4228Wh3g3VeXY1EUJElilGHbJianYApsE5NJgKElCA+GSRgnleCSZexeNw7b2JTQm6gYWpLAQBi7z4vDltryYRMPAUaMLb/9M49taKRw1SLs3Y3UdWyg5N238p+fvACbOvXvvTAMYqEI8YSGQEa123C5bCjTqN/D0HUID4ZQXS4c9ukwfAsiXc08f9+DPLHDT/ncHCLd3TyczOD//eZfWJDlxn42nmwhEMk4Da0hWg4c58WtraxblkPS7iYnzYljqr9OTM4r0+EJNTGZ9HQf3MXvv/MEg5ahmEUJsDhdrP7E7Vy6bAYOy/QQGkl/L8c2buC++/dxzX9/kcsrc6e010kkE0T3bWZvu8Kyz3yS29fPQEpG2fXXv/P0zteI3bEEq2qdvCsY74BYXzfHXnyRpzc1I1x2LIbGQETigg/exCUrSsl2TY9hTIuE6Kzey30/f5lld32Ud68tGW+TxhgBWpy63YfZ02jlzh98nvk5TpK9bWx96Hke/Us12R9aRHHO2SSzCoxIhC1Pv8qLrzdw4HiAL/04zsqrL+aOdaU4zvPLZChUSicej2O1Ws/rrqkmY8/0eDOZmExqBL0N7bQnrFzzsZsoSLOgSBKqzUL2rJyzrvM6aTGSDLTW8+RDu2hu6icaiTMcMTB1kWQs+bN5752zUHKLycq0YmhW8vJdGLs6xj82fKwRBoGWGp58uIrsa65n7dJCZGIcfX4DLz2wmeKSNLLLRl+BZGIjCPX20Vd/mEd+u4HDdf2Uh2PjbdTYI0BPJGivayOUW8KFCwqwW1Q0l8yiyhJeemgXbdfOOkuBLYHTzZqLZnO8+TjVXVb6XIWsm+nDcp7eoyOiOhQKMTAwQE1NDQ0NDVx//fXMmDHj/Bhhcl4wBbaJyURHxOntDGL15lBeOZssp4JFVbHYLFhUZVrEoQphEOlu5aWHqmi3FGGzDJ598PYkRFItWIrmsKgI9EScwcYmOtuP8+prbWTNnYv9bRO0JjfCEHQ29+LPLuWud68kN9uN0OMU5irs+OeHOHSon5VTWmAL0DVqXnmFpx/fS1CyDm03OE3Q4xH8A3HcOWlYkZABxWrHk5lDPLif/oGz3FpekpAUFUe0F5E/m3+7NJNHnqgjaSzFMYahVmI4fyCRSBCNRuns7OTAgQPs3r2btrY2LBYLa9asMQX2FMMU2CYmExqBpPvp7Q8RTSR48Z7f0NgSJG3ufC774NUsK/VhO1+ul3FjqILAq396lkbyuOWOIv7w1cNTWlieiUhfJxu/9Su2doQIeQq4+MrylFXgmKhIiszc9Zfz5Ys0MjKGanALw0CPhNF0BctZbIM9KRGArhF0FXL555aQL/r49tcenBZ9XyAwRJREUsJtt59YqZKQUC1WhK6jD5cmPBtkWaZwxUV8YYlAtapcfeEC0jJSu0vnyYx4rMPhMFu2bGHHjh309/cTi8VIJpMIIUgmkyQSiRPJ2yZTA1Ngm5hMZIRA9PUx6I+gJxLYCxewfIZGW10rj373fpL/7wMsm5OFewon+yVDIQYO7eBgr5XVH1hFkdE/rZI6R7C6M7n4C59kaSLMgQ1b2P3cJl5eMpvVRQ481ql6PSTsHg92z9BvwtDxd3bxyp82Ii9YyNKKFGyoM5GRANXK0rVLkYVOsjU6rQTYP6ziJ8S5l4+UwOJwkD5cft3jSM3mOWciGo3S2NjIvn37qK2tpbu7m1AoRCKROOUdJoRg06ZN9PX1UVBQwIwZM3C5XKjq9Epgn2qYAtvEZIIjZBcL1iwla102V1y1BKfFoHXvbh7+wQNs2lrL7ELf1BXYepJwezNP/GYjadd9kFkzMjEa+4aKaxhDtaGnchC6MAy0SJiEYkVyuMhbPAcAj2rQ/aP/49m9gyzJsU9hgT2CQOgG/o4Odjy+iU2HNdZ/eSWF2d7xNmyMkUBW8HkUhJZkOu0nKCEhyw6sVojEEidKlAphkEzEkRULVtvYieNUYBgG0WiUgYEB4vE4AIqioCjKabXVm5qa6O7uxufzUVJSwsyZM6moqCAjI2M8TDdJAabANjGZyEgyUnYJa953asWA/NIyrrm4hP853Ik/EKcgfXTbIk9Y4n4OvbaXF7pncPe8NBzJCJ3+EEIYxPxBQuE46V7HlA3HNpJxOl7byPZ+H/MuX0dl1tAr2+l0kJ5mJdQfQkvqTPVNeYUQaOEAr/zhQTZUDbL4S5/jssosfPapfd7THcXixJPhoK9jEAOBAAw9QdDfi8WVQ5p3Ygtsl8vFBRdcwLJly9A0jV27drFlyxYaGxuJRCInNvCRJInbb78dSZLYtm0bO3bsYPPmzSxZsoTPf/7z430aJueIKbBNTCYwQhiEWxqoOx7GMmsu8/PsyJKEYQg0Q0d2WJEn+Hbbo0ELhBhobsES6OTP32zFalGIhaP4IxFeufd+ujpv5LN3XIw6RWv1yYpMRpqFmodfZyDupPzWpUh6lCM7qtjdBjd8Loc09xRdvRjG0BL4W5t48GeP0i4yueFLN7FqWSYu69Tt9yYMJSTa7cyYnU9G1UGe3tvJJXN8JFub2fHSYXLXXU9+jme8rXxHSJKEqqpUVlZSXl7OwMAAPT091NbWUl1dTVdXFzabjYULF1JRUcHg4CB1dXXk5uaOt+kmo8AU2CYmExkB+mAPWx7fRrJSouSmeVhVgX+wlz37uihftRaPc+rWTpWdXlZ/6DaKLg+f+Ky/voH773mcBe+7kRsvnjVlvdcAkqzirljBZcva2fDSRv7YU4c1EaahqY+id13KJWUe7FM5yVUY+Hv62HT/Exzsd/Hez17Nkjk5uFWB0DR0RUGZ4ome0xlJUZmxZDEXHmhi5/0P012cTryjgx6lmNveO58Mt228TXzHSJKE0+nE6XSSkZFBWVkZ8+bNY/Xq1TQ2NpKeno7T6cTtdpOZmUlRUdHUL8M5xTEFtonJBEaSJLwz8inNtLDp2WfZnq2R4xHUbatiT8THB9bMJMM9sZdJR4PszSDTm0HmrDc+a3Up2G02yuaXUTyrkCnswAdZAVcuq257D2kle9m29RhBexqrb17LqksXkGaRpnRFCWEkaNj0Ek+9UEflx29GHuiiYU83MLSTaWb5HGbmusfZyvOHJElDG01N5Zt+CjJpJSVc+albSX/yVY4eH8RTvog161dRnuPCOokfflmWSU9PJz09nVmzZp327zbbqZOHZDJJLBbDZrOhquq0SnadrJgC28RkIiNJSL4iLrvjJrJe3MKLf34Yv2Ylt3IRd3zrJuYXZ2KbxIPMuSArMnaXHUWZ2jWgT0b1ZTJ//aXMXLsWJAnVasEyxcU1gIj10nS4lSRJ9j/4OIcUeSjaXJKQVBvrPv8pZl4xe7zNPD9IEpIsY3faUNWpHRZ0CpKMPTOXVR94Nyt0AYqMarFimWYrF62trbzwwgvMnTuXlStX4nKNXWlBk9RgCmwTk4mOrOLMyqXyhmspWrUGTSg4vG582T7sijyNvFlDZMyayRfv+SJZBWnI0+TcJUVBVRRU2+RZEk8Fki2T9Z//OIvfHzz1cwBZISM7bVzsGg8kWcZVMosvfP9zpGVMjtjjt0MI3sHGORKyomBzOs6DRWdiYoRpSJJEIpFg48aN5ObmMmfOHKzWqbt6ORUwBbaJyTjzTl7fssWGI91GcXr6mNvzZsZqN3JJkkDA2YYZ2p12SstL3v6LqWB4B7axwtCNoSoCSCm7yMIwMAwdWR69l1MIA11PjtGStDR8bf/x9ZVUB2k5DtJyclJ87PHj1LrGZ9G3JBmL3U7JzPy3/l7Ku+tQg6msx6wMTxjjkQSGkQKDJZCGZ9upel4FkNR0QJoQtahzcnK4+OKL+cMf/sCmTZvIyMggLy9vQthmcmam1xqLickEQpKGBMab66GOFiFS2x6Q8m3JJUlCURQ0TcfQJ+7568NtjcUglpGRQSwUJxlLpkQUSPKQEIgno0TjoRRYCEktTjjqJy8vN6XespFY4mRcQ6RCYJ2M4OxnbW/ZnhgjESOhJVL/rIoUKuyRLb5TPblyu934vD76WvvREme/G+OZsNgsCCT8wURK2jMMQSiigSTj8Yz/ioHT6aS8vJybbrqJxsZGXnjhBXRdH2+zTN4CU2CbmIwTmZmZGElBoCeInkzNi9JisxCJBQhHAykRbYlkDCEM0tJ8OBypW6K12+0smL+AgXY/wf5QSmy12q3YXFYCwV50Y/SDtm5otHfVkdCiOByOlIus+fPn47S62fboLga6/GgJDV0zzvlHlmXyZuUQSvTR0n4UTUug6xq6cZY/uoamJwlH/bR11eFwOCgtLT0t6Wo0OBwOCguK6GsdIOyPpuT+2912LDYVTU9gpGCSZRgGkWgATU+kfLMPi8WC3WZnoHOQUH9o1JMMSZKw2CxIskQoMkg8ER21jUIYxOJhdD3BjBkzsFhSV60oJyeHuXPmMdAZoPFAC+HBCFpSR9f0c+r7hmbg9DiwuOwcru+ntTNEJJokkTRIamfxkxz6icY02rtCvFrVQX7hDAoKClJ27qPBarWybNkyysrKqK2tZdeuXSQSqZlQmKSeaR0iMhbew4mGYRgnzlPX9Sk94x3yik2eOWNlZSX7DuyjZmc9iirj8DpQLQrnGisgDIE3y4O/vYvaxt3MKbsAq8WOLJ39NRFCEE9Gae+uQ1YkioqKUurBdDgcXHnlldT/sp6anfWoVhWXz4ksS+fsLTcMA5vLSkKP09ZVS0HOLCzquYlCw9CJxkPUNe8lPcPHvHnzzqmdt2LWrFmsunAVm1/dzMFNR3Gm2XH5zn0SY+gCPaGTSEY42rCTwUA3DrsHVRkWRtLQ7ngjDG1wMfwPbyKWCBONBRByglWrVlFUVISipC6xzul0UllZyYEDB6jd1YCsyDi9jtHdf33o/vc29dDV20xGWj4W9dz6rG7oJBJRjjTsICc3i7lz555TO2dCkiSsVivz58+nb3svNbvqmVVZitVhRR5F4p4Qgoz8NLr6G8nOKMLnzkJWFM4lFdYYFtcdPfVkZGZQXFyMqqZOLjidTtatW8exY8foqe+h9/gAGfk+LLZzP4auGQgB7T1R7n/8KAXZTrLTT96E6h2GYQnoD8Rp7Y4T093cdPlV+Hy+c7YrlSiKgs/nY/369bzwwgtomjapxrzphiSmWaFFIQSappFIJAiFQkQikSktOqurq9myZQsXXnghFRUVKfVCTSRkWcbhcOB2uydNGaNQKERVVRWPPfYYWAzS8nzYPfZRheImYkk66ruI+uNkpReS7st9Q2CdxNAqusFIfOGpUaECw9DxB3sIRfuYVz6XD3/4w6SnOP5b13Uefvhhtm7dilANcsuyhrxwo/AUhwNRmg8dx2Zxkp1RhNedeUaBIXgjtnro/E/9TlKL4w/1Eor2ce2113DVVVeNSUJRMBhk9+7d7N69m56enpR5o4QQJJPJUxwIsiyfeC50XWdgYACr1YrH4zntmkuShNfrZdmyZVx11VVYLKO7L2ciGAzy17/+lX379mF1q2QWZ2Ad5f0PDoQ5fqQNi2InP7sMj+vMfXbo/g/9nyTJp/WQhBbHH+wmEh/gtttuY9WqVSl/d/b19fHUU0+xY+cOfLke3BmuUQlMwzCIhmK0H+vEIjnIzSrFYXMhvWmCLYb/K4zh0JczPP+anqS3/zg2h8IVV17OZZddltIJFgw9/36/n+eff55jx44RDodTNhYbhkEymTzlGVcU5R1PEqxWK3l5eaxbt44FCxZgt0+snXI1TSMWi+F2T58SlZORaSWwR8T1sWPH2LBhA42NjSctTU7NRIF4Ik4ikcBqsWKxWs7Jmzk5GIoTzMzM5JprrmHBggU4nc4JnQBiGAbxeJzOzk42btxIXX0toXD47f/wLRBCDCXOGQJZkocS3c50DYQgGoshyzJWiwXpzZMRAfkFeaxceeGJklCpHmCFEEQiEerq6njllVdoaGpA00YX2iEMgT6cmCTL8j9M9NM1DU3T0HUdu92O/KZzUxWFwqJCrrj8cuaVzxuTEBF4QwjE43E0TUvpipp4U4KmJL2RrDU4OMgvfvELSktLufnmm88oHlVVxW63Y7PZxuzcw+Ew+/fv57Xtr9Hc3DTqWH9DN9A1fXg1S/nH91/Xh6738P1/c/+3WFSKioq44YbrmTFjxtB3UnwNdF0nFApRXV3N9h3bOX78OEktOao2hSGGRKqQUGRlSFy/2Wwx9J3oSTWVTz43iaF7X1JawhVXXM6sWbNSGh52MoZhEIvFSCQS6Lqe0oTiNz9LJ/f/t0OW5aEwHrv9tOszETh54mAycZk2AlsIQTAY5Pnnn2fv3v3IVieetBxcnrShwdXsqJMaYRhEQn7CwQFigV7mz5/HunXrKCsrm9AvoZHwncHBQSKRyKgF5jvFMAz+8pe/oGkaH/rQh87onbXb7bhcLrxe75jaEolETqwmna/XUU9PD8899xx9fX3cddddp3mCZFnGZrORkZExJt7b8aavr4///d//Ze7cudxxxx3jWu4rGAwSCoWIxWLn7ZidnZ089thjuFwubr311tM8lLIsY7fbycjIGFOBZRgGiUQCv99PPB4/L6uphmHQ1tbGfffdxzXXXMPKlStPW+0b2XXQ7XbjdDrH3CaT0WEK7onJtInBjkaj7N23j5c2vUxu4SwWrriU/OLZqBar2SmnCMlEnMG+Lg7uepldVXtQVZX8/Pwx8T6lipGly8zMTDIzM8/bcTVNw+l0IsvymHno3ikj2wefTxRFwePxEAwGKSwsTHkS20RnxLs9EZ4Lj8dz3qs0CCHweDxYrVaKi4vHbal9RMifzxAEXddJJpNIkkRubi6lpaUpX50yOT+MrACEw+ETIZImE4epGi9wGk1NTTz91NM4PRlcdPn7mDGrAot1bJY+TcYHi9VGdv4MLrvhI2Tml3Lw4CGamprOm1d4MjLR49THEkmSUpq4ZTJ5GEn+Nt//JpMZTdOorq7mt7/9LceOHRtvc0zexLQZXdva2oglkixYthaHa/xrWpqMHZIksaByDbLFzq5du6Z0EutoMAxj2gpswzDQNG1CxleamJiYvBNkWR6qpx+LsW/fvvMWYmfyzpgWo6sQgsHBQTRNJyuvGNVibi861XH7MrDY3dTX15sC+x8w4sWbjrw5AXC6cjaJXyZTD/P+T25kWSYrK4vMzEyOHj3KwMCAOd5NIKaFwNZ1nWg0imEI7A73FK6kYTKC1eZAUa10dXVN+VrnJibniizLZvztNEZRFFNgT2JkWcbr9ZKXl3eiQloyObpKNCapY1oozZO9VearxMTEZITpKi5OTnKcjmFCIyXhZFmeln1gxMtperAnP5IkUVJSgt1u5+jRo6bAnkBMvzerKbFNTE4wXT1YI6saqdz+2WTyMJ3Do+CN/j8dn/2pSHFxMWlpafT19ZlJ/RMIM4XexGSaMuLBg+k30IrhzTbMJMfpyXSOwZ+u5z2V8fl8rFixgkQiYToNJhCmwDYxmaZM52SY6SywTsacXJiYTH5cLheXXXbZeJth8iZMgT1JCLRV8/L//Z69bWEWv+/TXLFyCR7LG4NjLNjLvmd+y8sHuii76AZuuHo18aOv8Oi2I9gqb+TDq2ad1qYUamXHC//HU5v3vbGTpayg2t3kz1nB6kvexbzSIqzKNIwkMjGZ4tjt9nHdwXG8ma7x5yOY8dcmJmOLKbAnCYlQHzXbN7C1rovjWStYsXAunrSR3e8M4uEBdmz8O5v3BYlmLeLqK1cS62lg965teLIvOWObkham7dheXtt5iIqFM7FbLUgSREMDtNcf5mBDN3d+5hMsys9Akc0X8XghhCAWixEKhU5sKT3ayii6rhMOhzEMg6NHj067UInOzk78fj+KolBbWzuttoMe6U9z5szB5/NRXV093iadd5qbmxkcHMRisVBTU4PNZhtvk84bhmHQ1NSEYRgcP3581PdfluUT26q73e5pdS1NTN4KU2BPIiQZ0rMyiNdXUd19HcXDAlvocaKBeo71xXEIcXZpnKob28z38e8//iIFXjcyBroWZOcD3+Evz2zi/hdW8b2PrkHBLOU1HhiGQSAQ4PDhI1Qfrqal5ThdXd0pzRT/6T0/T1lbkw0hBPf+8tfjbYbJOCAQ+AMhfvbze8fblHFBUa1sePElNrz40jm3MbIbamFhATPLSlm4cBFz587Bbreb5R/PMyObZwkhUFXVvP4TAFNgTyJUi4XypUto7mzltV31XDU3DwnQQ70EDr+EVH4RGb1Vo7ypMrLsZNHSNRTvrOFoQzOaWIMFs/7K+cYwDGKxGL///e9paGzC5vQyY1YFsysvQ1XNO2JiYjLeCJLJBH2dLew7eISqqipmz57NbbfdRk5OzngbN62IRqO89tpr9PT0cOWVV5KVlTXeJk17TIE9iZAUC/YZy5kX38bAkZ30xFeTaZUI9reyd/sRFi2/nkO7D3FWwkvoCD1BNBQkJOnIwkDEgxw6sIcuf5yc5TOxSKaUGw8GBwd58sknaWntoHj2YuZXrsHlSUO1WIdjR827YmJiMn4IBMIQFJXOpWxeJUcPbKf68AF2797N2rVr8Xg8423itEHXdXp6ejh27Bhr1qwxBfYEwBTYkwlJQXbPYNGCZjbtP0hTTwhvrp3+lhr2dshcVzGbOttZJi0ZSbSeHTz+R4HHYUcyNPSon9qjB0gWXMIt6+aaO1+OE21tbWzfsYOimQtZfOF60rPyxtskExMTk9Ow2R043T4cLi/d7S1U7d7NwoULTYF9nrFYLMTjcYLB4HibYoIpsCchCnkLl1J6+BmONLQwPz2XhvrjDPoqKS9087zlLMWwHiUx2MSB12NYFQVJUbGmZTPvsju54oorKS/Ono67EY07QggGBweJRWPMXrAcb7rpjTAxMZm4yLKCy5NG5crL2b/jeVpbWykuLh5vs6YNiqKQlpaGJElmCdIJgimwJyHpeQuYV76TP23bx+WZ+bR1+ym49H2kKdLZi2HVjb3sPXzxO3eR43IiSxLICjaHB4fDbgYhjBPhcJj2jg4E4E3PQpbNhBUTE5OJjaIoZOUVISsWWltbx9ucacVI2UVZlqdVRaiJjCmwJyE2bw755YuI/2oT++csoDPq4OILZqDI7WffmGxBsXnJyisiz+s2vdUThEQiQcDvx2K1Y7XazRemiYnJhEeSZKx2B4pqYWBgYLzNmVaoqkp+fj6VlZW43e7xNscEU2BPTmxpZOSUMyP8GzY834Fn4U3Mz/AiSR2nfVXSEiSjQfyD/W98JisoVgcOfXS1lE3GDsMwMAxjKJnRFNcmJiaTAYnhEAVzS/bzjdVqpaKigoqKivE2xWQYU2BPSmQ8mdksmZ3GQ9Uhbri2jDSXBelMpZEHG6m+75/53IOOEx9Z3BnMvP4LfObi7PNnsomJiYmJiYnJNMEU2JMEd3YJy6/9EMlZc/A5bNisRay7+S6MpVGWVy7EKltAzWfde25FmVWJQ7WilK3gypuiVPojQ7HVw8hWJ1llhTjSspl34ZXcWpyJ124z461NTExMTExMTFKAKbAnCfaMEtbe/k8nfeKjbN37KVt30kdqIVd85FMnfrWVreA9ZSvest2KS27GXFAyMZmsGCSTSQwhISkWLIr0pomyQNM0dMNAVm2oEhiGhq7pWKzWM8b2G4ZBMhE//VCSjKIoKKpqTsZNTExM3gZTYJuYmJhMSgQQp62hhqCm4C6cxwyvBUU+Wf5qDLTV0RWI4ytbRJ5TIdLTSltfiLI583BYLae1qseDNNQcRTMMTkTRSjKq1YE3I5f8/FzMmjYmJiYmb40psE1MTEwmJToSbTzw4y+zsznJnOu/wlc/djFep23on4WB6N/Fkz/+JhtbJFZ98yE+Ms9D7aY/87PnD/PN7/2CmXkZb2pTEGqv5kd3/xOGJwOn0znkrZZ0EtEokqeIvLWf4LM3rSTL6zzP52tiYmIyeTAFtsmUxFzCNpn6GCASDA6EGOzpoWX70wRuX4nHOZRPIQydjt2vcqC2kUTSgz8hSBqCSDhMT3cnuq6f3qSAZDxOT0cbS9/1Ca6/YiW24WPFAk1seOQhXvq/H3P16l+T6XWaz5mJiYnJP2DaCOyRWEMhBGbxoKmPEAIJzKL7JlMf2UPJTDuidyc9gQC5GR4sEhh6kqqte4i5S5krBZHf6WMgSSBBXtkcyisvxDX8sdCXYg/1smHL9wj29yDINwW2iYmJyT9gWuwroqoqdrsdSYJ4LIIQZv3nqU4yGUfXkmRkZJgC22SKI5E9s4KLczRea/czkBCAga5FqTquk7NgKWnK6F/1WjJKODCIkFWsqmV6DB4mJiYm58i08GBLkkR6ejoWVaW36zhpmbmo6unJPSZTh8BAL7FIgPlzZ6MoZkqWydTGnVVGZXmCn27aw/qyArKzZZKdm+nJqeTS+Wm0HDuLxoZ2CaH61Sd5JFCDBcBIEvN3cvDQEYpWfpD8wrwxOhMTExOTqcG0ENgAM2bMwON20VSzn8IZc7BYrCjqtDn9aYNh6CTiMY4d3AlGguXLl5sC22TKY/NmULDQYt/0AAAgAElEQVTsChKPPkHjDasoc9pp3fwIOYs+QH52kJZzaLP10GYGWvYOe6oNVFcmxUuu4LprbycvzdyK2cTExOStmDYKs6ioiEsuuZi//e1vHD1YxILKNXjTs83wgSmEEIJYNELNgR20NR9jxQWVzJkzB9WcSJlMdRQvzswKshJfp762gQs8bl54+DVWf/3fKLY2sfNs2pIkkCSu+qcf8qGbrz4Rg21iYmJi8s6ZNsrDbrezfPlympubOXx0Dx3NtaRn55OWmWeGi0wBDF0jMNhHX08bwYEeyufN4dJLL8VisZiTKJOpjwQOj4/183OpbjjCLl8er0bLWZuViyXQNN7WmZhMaAwtSSQSIRSN4/Bm4LCqWGUDw9CIxAUWVcGqQjIWJhBJolhteL2e81oPPh4JEY1EiGPB53VjP0MN+9QjSMZjhPx+NMWO0+nA5bClpmlDx9AS9PuDoNpwuNw4rcppidNaIko0GiMU1fBlpKFKBslYlEAojictDbt9aAOtici0EdiKouD1ernxxhvJynqNQ4eqCfUdJ9jXdsr34okEEqCqFuR3nHZ/9miahiRJYx6+oGkauq6jqiqyrDCWWtMwhnaVs1gsyPLYp0DF4wkMQ8dudwydlzCwqTLzly/lyiuvJCMj47zYYWIyEVBtblZfvpodG1/nxc15GEtvIyfdgxx48zcFhqETiYQIh04eLGUs52XQNjGZWOjxIC/9/L+4Z3MTK//9z3zpIg/RUBf7tmzguXovd95xNaVeicat9/P1e1/GW/levv2Nj5DB+aoUIWjb9zI/+MkvafYs5ltf+zKVJW+uYT82xw32N/CDf/lXDuilfPJ//psbK3JT07KeJHzsVT5z909JlK7hG//+eZYUuk5ziEWDtdz3le/wZC38y/0/Z517kGd/+F3+sL2H93/jf/nA6nm4J2gU6LQR2AAWi4W8vDxuuOEGLrroIrq6uhgYGEDTtKHyfULQ0dFBT08P5eXl2Gwpmqm9CSEEhw8fJicnh+zs7DE5xgiBQICjR48yZ84cfD7fmAlOwzAYHBykqamJioqKMbt2J9PR0UFjYyMrVqzAbrfj8/nIysqisLAQVVVNz7XJFEcCJGRFQZYVFKuV/HU3kPnMf/BqwyCrv/xVXE4XMVlBVlQUafgvJBkpNkjVK0/RnOZ9oznZweyVl5MtSSiqBVkyJ6cm44uhaxgCQEKWwBBDRXYlWXnTjqVD+TfCEBhCIEkysiIjnzQGCMPAMIwTbciyMlzGFYxEnIH+PpqajzM7EicUVYkffJIvfOZugiu/zLU3XEyBzUJ0sIeO9nbiMwbR3mgZYQh0Q0eIoedLluUTDjohDIRhoAuQJQkJ0A3jtO8NTXwFhq4PlRKWJOTh85CAwc5Wag9Usc9joz8QAs4ssIWhD7UjBJI8fIwhDxSGrg9dT0lCkYbsABlJllAk6cQ5wJDzT5IMggO91FTtYJ81QVt3P3p5JoYhhhx2snTSNX7TdTjl2MPfEG+cnxGPEvd3c2DvbhLxfNoDCRYVuJARGMLA0A2EJBMa7Kal7givbY9yqz9ESAkR6O+hoaGF/lCIuG7gRKAbAlmWhu6nbiAkafj6yie84kIM9wFj6NpIw/2CM9iaCqaVwB5BVVVycnLIysrCMN4o2afrOs888wydnZ0sXryYnJyclAtSwzCIxWJs27aN2bNns27dujEVgocOHWLfvn0UFBSwePFi7Hb7mBwnGAyyfft2AoEAlZWVZGePfXz7k08+iSRJLFy4kKysLCwWC4qimLWvTaYJEgILXp8Pt8cNkgXhqmTx/AU0Kg7ev8KH2yKhO9w4vRlYLTKqLOFwOHBbdF5+8s8niWgJ5GyuyK3k+nwrGdl52G12sxSfybghhEF4oI9oUiAUK26rQTCaQMgWHC4vXqf1FBEbCweJhCPEkgay1Y7P58Vhsw7XfxfEo2Ei4RDhWAJkFYfLjcvtxm5RUJ0+rvr8d1j8oQDpM9KwJ3rpam+keSCKLTRIMBggnMxh5qV38quKD2B1+0iHEwItHosS8PtJ6ALV6sDpcuFxDpUG1uIxIiE/IU3BbbcgozMYjGCxu3C7Xbgc9hMbQ8XCYQKBIAnNQLZYcbhcpPk87/g5FEIQCwcJR6LEkgaq3XkinEToBtFAP+EkICt4bDL+YGQoPMPhxO1QCAz6iSY0UO1kpPuwnqwQBWixKMGBXoJRDYfbi8vpxGEb+tLIdfD7/SR1sNiduNxuXDbLiRVmQ0sSGBwkltRBT2DoxvAE6g0MPUkkHCYQCiMUG7FonJMLKzs8Jdxy9/dZ9YkQBaWl2I0kkWiIgVASt8uOqkDQH0QoNlweNx6XE2W4D2jxGOFQkFAsic3pRpEltHAA7B5cTicuh/Vsu+lbMi0F9khoxsnhGUIIYrEYhw8fZmBggNraWoqKilIewhGPx2lsbCQYDNLW1oau60PbEY+BIBRCcOzYMQYHBzl06BBLliwZM89yd3c3Bw4coLOzk76+PvLy8rBYxma52TAMwuEw9fX19PX10dzcTE5ODlZrah8OE5OJjQxSEXd89QcoioUhkWxjxa1fpVLXyLLKqIA7dwm3f+UnaOkunAqUX/c5vrfifac3J1nJyMjE4Szmq/f8jfS8QswnymR8EAg9xuZ7vsLPNtWTt+Ii0gfrOFjXSlT1MX/l5XzuX+5kbrYbJR6gZf9L/PmBp6g61MhgVMfiTmfxJddx2/uuY9XcfGI9x3joj3/iyZd3EYjr6AZ4C+dwyfW38OlbL8eSCPPqfd/key/UcfE3/85N/qf5zk8eJ6Dp2A89zH/+RzdfuPsLLAs/y90/fYm05bfy4+9+kgw9xtHtm3ji0Ud5dd8xAlENqy+b+cvX8b4PfpiVZRno3Q387nt381h1lBWrLyJYt4e69j50exaXvffjfPCWa5mbqdK44zkefPARXtrbQDypIVQ7eeXLufFDn+Q9K2a87RVLRoP01O3m/t//iVf31RNICpxpOax+z0e5/Zq1zMm0UvvIf/OfDxxEqbyK+YFD7DnaQMySQfmKy1hTGmfrK9s5enwANaOEq+/4Ah9eP2/obgiDhL+Nlx+8ly2/aKa9L4Qzfz7X3v5Bbr3+EnJtgraD23jq4Qd58rVDBGMGzqwZLLv0Gj7x0VsoSbOS6D3Orucf5A9/f4nm/ijOjFwq8i0MBMO4AYQBeoS9Lz7OAw/+ne3HOlC9WZTNzqaluQ9wApCIdfL8T/6He1/u4GPf/ym3LvGy7dff53vPHeWCNStwBRrZf6SFQc3K4svey50fu40VpdnE+pvZ9swj/PaBZ2kNaLjzZ7JoYSktrzxNIOdq/usHX2DtjMyU9uJpKbDPRDKZpKWlha6uLqLRKLt27WLt2rUp94YmEgkOHjxIKBSitbWVvr4+bDZbyitdGIaB3++nsbGRQCDAwYMH8fv9uFyulE8ahBAcP36clpYW4vE4e/bsYebMmWMmsHVdp76+nt7eXkKhELt27TrhnTc91ybTBxmwk5dfcMqnWbn5p/xu92Vh92Wd+N2WloE37a3jN0tml6fMShOTc8EQOn2tjTQc3cfu+kZmLFrGguJcDr5Wxd8PHqQ7rYJ7Pn4hztBRfvntb/HAvj48OWVUzs6i+eAeHvptHbUdUX74Xx/Duun3/OqPj9Jin8eHr7kA0XOYzTureNSv8K5r38U8PUpPZwdHamqY6Y+je3JYNjuXl/Y0gCOPxcsWkmYRhPvbaaivJ6ewm7ihEept5K8//yF/23wIW3EFS2bl0FK9j6f+eIBj3QY//Nqd5IQD9Byv5fCBHtp7/CxfuYyZuRGe3LCZ9rCDOZUXMNvjZfPjD/PUK1UkchaytjKb6ldfYOtTtXSqZVyy4INvd7UIB/p57Nc/4FePHcBTVMGaxVkc2bqJP/6sj15bJv/7ngUMdDbTcOwIfcdaCK1YzbwyHxs2VLF7dxXbZhYzv3IJBa4uXt3yDG2xDJbOv5v5w0NqMtbL3qqDXLJ6OXOVAzy35SmaewbILp3FDTNlnvrTr/n5I5vRCpeyvrKI6tde5cF7D6JlzuLLNy6g+/AWfvKje3mtV6ZixWrm5Wjs2Poa0WQSF8Oe6/ZGfvnTe3hhXwuuucu5fE4+R3Zs5XBvkBGBnYwG6etspfpwHT2DQUIRlcGeVo4e2kt7eyszl13IwpICnn7yBZ7tCqPMu4gLZqTTvvNRfvzT3/JqY5CVV1xHqa2XF//yJ9o6WklbvJTBUDTlfdgU2MNEIhF27txJIpEgHo/T3t5Oe3s7xcXFKRWK8Xicuro6EokEg4OD1NXVkZubm3KBrWkaR44coaenB03TCAaD1NbWkpWVhcPhSOmxDMOgsbGRSCSCYRg0NTXR09OD1+t9+z8+BzRN4+DBgwwODhKNRtm/fz+9vb14vV5TYJuYmJhMIXTAV3EZDz/+a4qVOLse+CEf+ez32fHre9l9URa5hx/h1y9Uk/Guz/KD7/0b15Z76drzKB/45NfZ88pj3P+uK1izZzeBqE7BsqVc+56bKcxwc0tnB0lXHuUuFemURGCJWReuJy95mF8+8jq+xe/m05/8GBfkwYGmN8YXPRGj9ZXfs7HqGKJ4Dd9/6M9cXmSj8ZW/8V9f+hpPPfo7tt98KVcXgRASmq5wzSe+xDc+fSNp/Xtpu/KDHOhoo6a5BbF0EYuuuYm7Fl5B2arrWJqpsek+ma/d+zBtzUdJxONvfZFEgv6OXfz1bxsx8q7iSz/6Pu9fkkPNi7/mo1++j/1PP039NQvQBRiGTPqs9fz4z7+m1F+PL/pxfvZiDdmrP8W3v/pe9KOb+PdPfYbXO6vpGwgMh3pLGLY03vsv3+Bbn1iPxX+Mz9xyB08eOcITG15j+WVOXtx2AL+rlLvv/TMfWeDmyGP38qX/+gFPPPgwtyz5KMe3v8Srdf3MvPFuvv+tu1iYnmTLH/8/Pv7tvwGgxWI01L3C7ro2nHMv5lu/+BXXzvdS89iP+Of/+BF9nW91/gK0OLnrP86P//ufWJyZYNbgu/jx3j72HKlDGDN57oHnONQRpuimL/LATz5FmtHPpt98g1u/8ieEEG/R+LljCuxhQqEQ9fX1JJNJhBAkEglqamrIyclJmcBOJBJ0dXXR3t6OpmmEQiG2bt3KhRdeiNVqTak41HWduro6QqEQMORlrq6upqKiIqUCe8R73dTUhK7rAHR1dVFbW8vMmTPHRPDquk5DQwOJRAJJkhBCUFtbS2FhYconDyYmJiYm44didVEwv5J8VUJV7WTNuYDKPBsvRxtp626nv6aRpGxl0TXXMbcwE0WVyJm9nDkF2Rw5PEBPUwPzb/gIC3fdw7aNv+eu3U+S7vWSVVLO2htupaJ8JucywuuaTv2O1xnUIHPJZVxW5MSuSuTNnc+KRbN5puYgNR1+Vuc6h2rLOzzMKMgjzSaDx0eOzYIa1kkIHVQH+YWF1Bx8gT9+/dP8KBCivf4w3RENu5GEt9N/yQSJ1loagkmCYh+//MpneMRpJTLQSUt3D/l9LTR2a7gNwGLDOmM+s+wSasSK02lHVS1kzanAZXMQs7pxOi3oSYE2PKYjSTjdhZSWlWCVFSRfMZVluWys6aGprYOB/iT9gwEGOnr5w799iGftMrG+Nmr6o4S6mhns99PT3oOmqOQtXU2W14nVlqB8/mKclofRAN3Q6e1qIxqXyM4pZU6ZF1VRyKpYwJycDHZ2Gm9xASSQXVTMLiLLawdJoSDfh3oghB6PQqKfpq4gkurjogvmYVUUVIeX/JUrKbT9BW2MHHOmwGbII9rX13dC+EqSRCKR4MiRIyxfvhy3OzW7loXDYaqqqojH4wghSCaTtLW10dHRQWlpacqEvGEYJyYI8eGZrxCClpYWOjo6yMnJSZnwNQyD5uZmOjs7EUIgSRLhcJimpiZisVjKwzYSiQQ9PT20t7efEPRCCI4ePcqSJUumjMCWJOnE5OHt364mJiYmE4Dh19XQXkUpeu8LMZxNOPJelIfLzQqEAFkfOqysqojhTZIkWQVJHvpcUvCUXsw/f9FC6RNPU9PcSUdnB4e2b+RITQvWmZV8uEQ7w4GlN46PeOP3kzA0Y8gGVUWVhyqEyLKMRZGH7JPEkK2SBKqKzaJglSWSiooqScgIdD1JMtDFo7/5Bfe/fAh8xVywqJIZHkH3y1XI8hkP/eaLNFRX2gCLw4XNYsfldmG321iTXUJu+XwyLBKaBCgKitOFSwZNklCGq5lYPR5kWUWSZBRFggSneHaF0BkuQTJchUQaHpoEQmgYQsJiteFyu3DYJJy2UlbllaHnLyTD46BxuC1NkpGGT+i0IhLDl1oICV1Iw9VU5HdQb1wCLLidNmwWBdBRVWUoCdYApKEqcSN988TtlEAaw+HVFNhANBqlpqaGcDh84rNkMkltbS1+v5/MzMyUVBMZSQQc6bQjIvvo0aPk5+enTGBrmkZraytdXV1o2tCLwzAMurq6aG5uZuHChSkLSTEMg+rqakKh0IkXqmEYtLW14ff7sVqtKY35jkQibN26lUQiceI6joSldHR0kJ+fPyXCRFRVxeFwoCcTw2WNxImXkomJiclERCDQdQ3D0FPm7NC1KM3V+zjWNUixy6CzcR91/RrW3FkU5OWTNasQh6JzZOtmai+ZSS42/McO0dA9gOrNpqSskO6jh+kahHV3fY0v5cG+HVv5230/47EDNWzYWse7c0+v7SxJMjICLR4mEo0SjZ06PsuKQunShXiea2Hw4DZ2ttzMojSV9toa9jV0oHqzmZuXhlMdFu8SJxXNPql0na4ROl7Pk5t20BbP4bPf+A6fXp3Nzt/9N69s20P4nbz3FQvWvDJKfA668xZz59e/zo0L8xhoOcTeY/1kls5jYa7CQXn42NIZ6ncPT07OiBAkYp0cPXqE7uV5WGPHOdDchSY7KS0uwJshyEhzkaZm8dFv3MMNpQ7CrTVUHT5Oxsz5zJnhobUoF6ckGNi/g7buMtzeJIcOVhNJJLEAiqyQmVuEyy7R011PdW0HRWVO2g5Uc7QvCG+7p6zEyFzmtPNSvZTm+VAOd7Fn12G6brwATfZTv20nnUlB+hiJbFNgA4ODg+zfvx/gFNEWDAapqamhoKAAp9M5qmOMeJD9fv8pn+u6zuHDh1m6dGnKPOXBYJBNmzadqO89gqZpNDY2EgqF8Pl8oxaiuq4TDoepqakhkUic8m99fX3s2bOH9evXp1RgDwwMUFVVddq59fX10dDQwMKFC89LDe6xxuVykZubi6ZrhEMBPGmZSPIEraZvYmJiwlCptkjIj56Mk5OTk5pGk1G6Xn+cW27vY+1MlYPbtlOvWyl79x0snlOGK+N6rrzvQV7e+HP+rflVVs7LonbLKxz1K1Rc9QFuvriYnl98m+8+uId+5yw+ctft5A7W0dwZwGL3sKByJg77qeMXkoxiseFGMLD3IX74vQS3334D8/Q3whRUq42SKz7G0gd38djOZ7nzfcdZuzif+j2vc6QjyuyLP8yKuWW4orVveXoSEorFgkWRifYcZ8ezDzLjOPz1b0/THEji0xMI8VbhEYBsx1ewkvesn8s9m1/mR9+SqLu0gupH/0hVn51Vt36Ze/7zxnNfCxUCEe7h7z/7H44f2oTneBUbdx3DOXsVV6xZRfFsnQvmlbDr2Sq++4XP03tVBQdeeo5t9f0sveVuvv/FG5i94lIqs5/h9ed/yt3+/SzNSvDKS5sYDITJASw2O3OXr2FB4V94/uArfO2f7uS1lfnsfXkL1R0B3l5g/yMUkNO5/PpVPLSjmj2PfJf3d+6hlC727t1PVAjSxmiV2BTYQHNzM5qm4fV6icViwJAHUVVV6urqWLly5agEthCCcDjM8ePHgaENb0ZCUVRVpbOzk8HBQQoLC1PifQ0Gg/T39+N2u5Fl+cROjqqq4vf76e7uTklCYDKZ/P/Zu+/4qsr7geOfc849d9+bcbMnCYSQsEH2RkCGKIITR93a1lrbWruX3eun1do622rVoigy1DoooGzZECAJkE32vnucc35/hChowgwa5Lxfr7xeJNyznnvG93nO93keDhw4gNFoxGazEYlECIVCWCwWZFnm4MGDTJ069ZyP53j19fWIoojD4cDv96OqKiaTCVEUqaurIxgM9ng++xdBkiTi4uKwWS0cKvgIq91BVEzPpfbodDpdT1IiEdpbG9m+/m2cDhtZWVk9sl7JaKffoAlMSVbZXViCkpDDZVfM5v67J5Mc7cBgHcX3f/8HUl9dwZ7iSnbtasQQn8fCa+dyy62L6RvtIPnW73NH5Dn+u3kv7/7rGdDA3ncsN05dwNfHxeMMN2KzO4iPi8NhlpBlM9aBU7lx0VRW7j1KU00VLREB2eIkNjYWp8OGQTJgT8jjvoe+T/SSZWzedYBd2xsxR/dl9uRJXH/7V8hLcBCqMWFzxhLvimAxmwEBQZCIioklVrMTFWXHnpbDbTcsQli5htJNq/hnSQoZQ0cxQi6mMhzAq2lIFhvO2DjiHVGY5E+FboKIPSaB6x74CS22F9lRXMKKJYeQjclcuvAKbr1lBg5RxGKPJiYmBrOjI1gVJBmbw0m8y4XT3JHmIpvNOGLiiLNEYTGZkE0mouMTyHANYfykeGoPFLDvqIeccbO57LrbmD00FatV4Yav3UfI8h/W7jzI0lcOYXDGMWbOZdx28yySnHa0oVP59vfu56mXVlFRVcjecBpzb7yFNa+tRItyYLOYMCUN4tsP3Y/thaVsKqhg+x4YMOUKhmd9xMq9GlajAVk2YbU7SUiIw2Y2YpRlzHYn8fEu7FYzBqGj0mJ1RBMT4yHKYUMQJJImLub+u7w8u+x9qioP0tK3P9Ovv5J1T72EQTRgOA+T8Ana+eo+eQHpHJ4vFAqxefNmqqqqmDNnDg6Hg+joaFJSUoiOjj7r9WuaRnt7O1u2bKGiogKv18u+fftwuVzk5naMMzl27Fjy8vJ6JBWlubmZsrIyQqEQJSUlH3ekzM7Oxul0kpiYSFJS0jkHa4FAgNraWhobG3G73Wzfvp1Dhw5x9dVX43A4MBqNDBw4sEcnt6mtraWsrAxN09iwYQOVlZXMnj2bqKgoXC4X6enp521c8c9bU1MTS5Ys4XBJGen9hpA/fBJmiw1RkhD0WfZ0Ol0voGkaSiSMp72F/Ts+pLRwO/PmzWPy5Mnn8NzUiIQ9vHTPAn7z3iFSFtzPC1+dyKHKZkLGKDJyBtAvORqjQaJjzOww1aVFlJYfpdEdxBSdSP6gAaS4opEFAJWWmgrKS0ooq2lCNViIS+tDVt9sUqMtqH43R4oOUFBeT+qIaQxItGNVPTRVFLL3cC2aNY7UtDQShTp2H27EEpfGyEsGYQG0cICm2ioOHCyixRvGHptMZt++9E1xIYoCnqYayor2UtwiMHjwEHLS41EiPrav20hz2EhCv1yG9UvG31jF4SMllNS0YIxKJD3eTMjdRlmTwvjJoxBbaykpKqJBcjF2+CCSXFGfKTNNjVBXUsjh0irq24OYo+LJH5RPSnwMohKgvmgbBdU+ZFcG00YOQPG3cXB/AYdq20keNJ78ZAdq61GKC3ZTrUYzZHAeLjlMwZYt+B0ZJLpMaO0NHKlzk5idR9+sdBKdHalAajhAc20V+/cfpMkbwepKIj27H3lpcR250JpCyNdO0Z7dHG0NYHLGkpuTSsH23eBMol/+IPrEmlFD7VSVHqHwUCWKNY6stFjwtLC/tIXh0yYQawjScLiYvSXN5I0eQ0q0TFt5MbuPNNFn4CD698vEoimU7trAkaYgUnwWU4f2pWrfRj7ad4jKo3UYnbEkZaSi1G/hh1//M86Z3+OJv97H+Iw4epIeYB9HURSWLFlCaWkpt912G8nJyT0+k2NnfvRjjz3GkCFDuPXWW3t0/Z+2detWVq5cyezZs7nkkkvOWyfAlpYW3n33XTZs2MAPf/hDUlJSTr3QOXr55ZcpLCzknnvuOS9DHX7ROt98PPnkkxQVF2N1xNIvfySx8SlIhvMzxrhOp9OdLk3TUMIh6msqKD+0F5+7mSFDhnDNNdeQlJR0Lms+LsA+TOb1P+DN396J8dMttzrdaVr76Nf51p/+w8EWC1Ovvpx0rYWibZvYUu7nyj8s4483jiUrpmfTS/WzVafrpQRBwGq1cvPNN7Njxw4++mgbpQe3cWT/2deJOzqHgtEofyla+c9U5xCcgiAgShKGHp506UKgcWxa41AI+Vjq2MVG1TQikQiqomA0mRAvomtBA1RF+TidTpKkc74XSKJASmIco+fPZtCgQef0xreTIIg4XAnEJ7mJi43qtv+dTnc6Rlz7DX5iSODl5Wso37eNWkRcfcfxrbuv4tZFw0iy93yj1cV3Z9XpLiCiKJKYmMjEiRMZOHAg9fX1NDY2fjw6zJnavHkzPp+PSRPHIcsXX5AdDofZtm0bHo+HwQMHkpycfOqFvmQ0TaO+vp6NGzcy5JJLyMg49TTMXzZ+v5+PPvqISAQmThj7pegYfbo0TaO1tZX33nuPvoMHk5ube9Yd0QVBQJZlEhMTSUhIICoqqodS9ARE0cT4e35K3s1hBFs00nnIkdVdPKKS+jLzhq8yZNpC2rx+VEHEYo/ClZhCnNOM0dDz55ceYOt0FwCn04nT6SQzM/Oc1lNZWUlTUxOXXXYZVqu1x1Ogejufz0dVVRVNTU2MGTOGoUOHftG79LlTVZXCwkK2bdvGyJEjGTt27Be9S5+7lpYWKioq8Pl8zJw5k6ioT+ezfnmpqkpFRQWrV68mPz+fmTNn9mg/mZ4iiAaS+uVxLokmOt3HRBmnKwGnq4dGtzmdTX5uW9LpdDqdTqfT6S4Cegu2TqfT6XQ63XE0VUEJBwmLJgyShHyq5khNI+hrxxeMoAoysdGOiy4FT3civQVbp9PpdDpdr9UxFGAERe2Ymvx8UyMh2psb2PzWUpbursd7Gl1eNE2lafPL/PQH3+P7zyudGiEAACAASURBVL6Lqp5ichjdl54eYOt0Op1Op+ulNNRIkJbGRlrdPiLq+Y+wI/4mNrzwS66+8X5WF9XSGjr1NjVVpfHQdjasXc3qLXuIKHqAfbHTU0R0Op1Op9P1TkqI5sMbuO+ehwlPuZNffHURg1O6njZbVcIE/H4am9uxRzsR0Qi4PSiijMPpwGa1IAkAGiG/D5/XjccXQhUkTBYrdocDiwwtTXUU7i6kVVFpa6ylpaUNlykauwwhnxuv14svEEaQjNidDqxWC8ePw6KqCmF/O+3NIcKagNFiI8ZhQ5L0Ns2LiR5g63Q6nU6n6500laCnkd1bPyKUMpfWgNLtR5WQl12vPcX3nn2fMVfOJydSyZpNB2hSbUyYex1Xz5vE4MwEgu017PjwPf6z9E1Kat0EVZGYzFymX7GAmy4dyv9e+Rf/3nSIiBpkxzM/4ecV1/PjB++jv1TJ+v+uZMW766ls9CKYnAybegWLrriUYdmJHTuhhvE1HWXFi0+wbu1HVHgkssfM4K47byInwYnDdPGNvX+x0gNsnU6n0+l0vYemoakK7W434aCX1jY3EU0jHPDgbW2isSmCwWTDapZPGL9YDflpqa9m27YtVFQXY45NJj3aROmu9ezeX8zBtp/yj4cW4C9ew+OP/JX3i1sZOWo4Yn0x65dvZ8POUkaN/StYndiUAJqmIRjtJMU6CPjcbHvvcX705+VUB00Mzs+ivXAT/9xXxIF6hX/9+mZUDVCCeA+u5o/PHSEjyUTV/gI2bPmICudA/nLbOBym8zObsq730d9X6HQ6nU6n6z3UMOGafdx4xSwGDhrGpKsfpDwSpv7dv3DN9EsYPGwkU76/kiMN3i4W1kALo2RM5+G/vcB//v0yr//hZjLEVna8uoQNLRphOY1Z8xfx0O/+wotPPcZfHv0xcwbE46+pYK/fzLgF13LdpcMRJQtj732YB+66jj4c4G9/fJmGcDzX/fJpXn3p37yy9K/MHpGF2FLCkXYNRQM0CUfMAH740us8+ew/+e23r8MR9nFkzUbq2z2fd0nqvkB6C7ZOp9PpdLpeRRAl7HYHUVFRBIJePO1uRNmE1dHxN6NFRhK7GgZPACSyRk9iQFoaLpeENGkR/eLWsr6ljD0VIYYmZTN4cCsbPtrOE4+so7bsANur29HUGPxhEdlqxmwxIyBgsjqwGGWE+jJ217kR8gYyZUgGLlccDut0fvHoSDSDGZcdjgiAQcbUZzBT+sTiMgSJSU/FgUqkrZXwWc7Aq7sw6QG2TqfT6XS63kOQEGMy+daPH6a1tZmW0k1854E/Exgyj5/du4C+SVGYkgcQY5W7WwFWqxVJlhEEDYM5GqNZRlXDeP0hmos28tQjT7PlSA2WxEwGZMcSI2tUoIFGx89xNE1FC/nxqmAwmZAlAwgCkmzC4XCiaCKidizYFyUku51oScAgiUiSjCxAUIugfnrFui81PcDW6XQ6nU7Xe4gSkiWKMeMnQsRP1S4fdlHCmJbH4PGXMinbeZKFNSDM4cIi6lrc5EVZ8Dbso6HNh2xKIzMxzPKHHmftrlpyrv8uy35/F4Hq9fz07mL27Aoi09EGLgMaGqqmgSghRseTKotU15dyqLYFbVAKvoZDPP3Ei9QbU7n2rq8hqXQs/fEEM/pEMxeziyrAVlWVSCSC3+8nHA5/ZiB4VVXx+/34/X5aW1sxGAwIgoAoikiShMViQZZlJOnUvYA1TSMQCBAMBgmHw2jHRsdXFIWWlhZCoRB+v5/6+vqPl+mc9cloNGI2mzGZTKd1XOFwmFAoRCAQQFXVj7cF4Ha7CQQCuN1umpqaMBqNH/+fJEmYTCbMZjOSJJ1y1ilN01AUBb/fTygUQlE+6c3t8Xjwer2oqvpx2R1/XJIkYTQasVgsp1V+wMflFwqFTjimTj6fj2AwSHNz88ffkSiKGAwGLBYLRqNRn0lLp9PpLmSCiMliJ61PJoE4J1Hm03t+NHzwIg//uIYN+bEUvPsGextCxF86k8tSJJaZDKC4Kd2/lbfeS6H47Zd5d3c5mhaPO6ihYcIsG9EUP5v//QjPeeYxY+Jwbl4wmEf/d5Dnfv5jaj8chvvgOtYWNBI9ZCH3RoFH79WmO85FE2CHw2FaW1vZuXMnJUeO0NLSgvKpfChN02hsakIAXnzhBSxWKwIgShJOp5PklBRGjhxJcnIyZrP5pNsqLy9nf0EB5WVltLvdaMeCeVXTCIdCKOEwBw8c4KnjAmwAyWAgJiaGAXl55ObmkpSUhCh2fdVqmobH46G0tJSdO3fS1NiIz+fj+Kmu2traCAWDrF2zho+2bDkhuJWNRhISEsjLzyc/Px+73d5t8KuqKi0tLewvKODw4cPU1dYSOa78QqEQXq+XUDDIv59/HqvV+vH/CYKA1WbDFRfHJZdcQkZGBg6Ho9vyCwaDNDQ0sL+ggNLSUhobGroMsJuamghHIryyZAmyLCMeqwxFRUeTnpHBsGHDSE1NPa3Kg06n0+l6IdGANWM8j778MpIrDZeju7SQExYiPacvUmMxb61opsUt0H/cXL7xjYWkmO3MvP4qNtaF2Fe+lcf+WIlsMJCWnU6oXqWsyg/JNvLGj2TE2ztoKtvOhu2ZTJw6jSu//gNKg0+ysbCUt5aXgqKR1H8Ui++9jgyLQInVjiMqGpz2Y88cAaPFSrTLRdBhxSRfNCGXjosowHa73bz7zjts3riRBKcTk9FIV6FkalTUJ7+EwwBooRBN7e0U7N1HeVkZCxctIisrq8vtRCIRmpubeWXJEprq64m1WpENJxazWRRxxMefsI1OWjhMZWMjRYWFDMjL48abbsJms3UZZGuaRlFREStXrKCpvp6U2FhkSTrhpVS81Qqdwa6qdvwco4ZC7D96lB3bt7Ng4ULGjRuH3W7v8rj8fj+bN23m7bfeIsZqwW6xYDwuaDUKAna7ncTO5T91XB6vlyPFxRw5fJiFixYxZMiQbo+pubmZ5cuXc7iwkGiLBUs3LflJTucnx3os2Nc0jcbKSvbv20dpaSk33XQTMTExp91q/mXQVWWkq890/nTlQq+QdHdcx//9ZMff6ctYDse/5fqyl8HpnAcn+xx8+Y7/+O/8VPcB6AXHL0jYnLEMHhl7ugsAIn1mLObrU/pQX7AXtzGOMZMnMKx/BpKgkTv3Ln4Sn8+WHQdoV8wMGD4cZ7iWzXtKiLUpyEYrfafdyO9/Ecf+Gh8xOUPonxxFn7wr+cGv0tmxcw/FR1swOlIYMX48Qwf0wSQoxAyaye13D8AfOwBRFECQiM8czq333YeaNJRk6+m9ldZ9OVw0AfbevXvZvXMnM4cPZ1T/XMzHpUqcjoiisLekhPd37+add97hnnvu6TJA9Hg8vPPOO7Q1NXH1+An0T0s74xtUOBLh7W0fsb+4mMLCQgYPHtxli7miKKxYsQJDKMxXL59PUkzMGW+rtqWZ19avZ+2aNWRlZdGvX78uP1dRUcFHWzaTl5rKokmTMMmn04pw3L6qKnUtzfzjvffYvGkTffv2xW63f2Z/FUXh8OHD7Nm9m2smTmRodl8MZxEcf7hvL1sOHWLNmjVcccUVF1WArSgKiqJ0+dBUFAVVVQmFQh+n1HyaIAgdbwS6eXNyIeiuDEKhEKqqfpwuFgwGu1y+MzWsM03sQtMZNB2fntZJVdWP/36yMgAwGAwnpHtdSDq/40+nAgIfp7hpmkYoFOqyDDq/9wv1Wug8tq4qE+FjDSCRSIRQKNTtOd6Zench3j8Fg5XMgWOZNnIkqiBhNHZ0NgQBSbYy4JKpZA+dgErHd6xpGsPGRZCMZowGCVFLZsL8GxitaogGGdloRBQEErKGMCM9n6kRBcSO1EeDBIIgEj9kBtflK2iChCRKIIik9h3BjfcO6hhd5Ayfm7oL24V55zwLDQ0NhIJB+qem4bBaMZ7hQ0NVVfIzM9laVEhTUxOBQACLxfKZG5PP56OqspI4h4OEmGhsFssZd3NQNY1Bffpw8OhRjlZVMWDAgM8E2Iqi0NraSltbG2P69iXV5cJsMp3xthKjYxiXl8eyTZtoa2tDVdUuHyYVFRVEQiEmjLyko/X6DMtP0zSMhgT6JiXR2tLy8Q3+0/x+P1VVVQQ7vyuL5awebv1T0zhQUcHevXuZN2/eGS9/oelMgdqzZw+1tbX4/f4uP1daWkogEOCVV145afBoNpuJjY0lNzeXzMzMCyLQDIVCNDY2sm/fPhoaGrosg0gkQllZGcFgkNWrV7Nr165u12c0GnG5XAwcOPCUaWG9haIoVFdXc/DgQerq6ggEAp/5jKZptLa2EgwG+fDDDyksLOx2fWazmZiYGIYMGUJCQkKvL4NIJILH46GgoIDq6mrcbneXAXYwGOTo0aNEIhFeffXVE/qmfFpcXBxZWVn0798fs9nc64Ntr9dLZWUlBw8epLm5+TPH35laqKoqu3btor6+vtsAWhAEbDYbaWlp5OXlER0d3asrXIJkwGJzkJqaisthw242YrV30WosiMgmE/JJ+zkZMFkNfPoTkmxEkrs6XwQMRjMG46f/ZsRwhg16ui+H3nul9DBFUdBUFbvZjHQWN0hRFIlxOLAYjXgUhXA4jNls/kzQEQgECAWDOIxGZMlwVn2IRUEgxu7AaDDQ3s0DQlVVvF4viqLgtFgxG41ntS2jbCA+KorIsQCtuwC7qakJEYiy2xDPItASBAHZYCDaZqelve2EDpLHCwaDuN1uoKP17GwfZhaTEYMo0tjY2GX5fZmEw2Gqq6tZuXw5lXv2EW5pRQp3Xb4iYAVKKmq6XZ8GqCKIMVHs79uXuQuvol+/fr06uFJVlZqaGt5ZuYriHTvR2twIkQhCF2++Dcd+GitraexmfZoAmiiiOWwc6J/D3IVXkZ+fjyAIvbaiEYlEKC8vZ8XSpVQXH0JpbEZUux/HIB5o2bydlpOsU5FEBIeV/Xv2MH/BAvrl5Jw0GP0iaZqG2+1m9bvvsfPDDwk0NiH4g4jdZD8Yj/2UnuxaEECzWdmTlsLE2ZcxYcKELu/7vUHnm4mdO3ey9q23aS4tRwwEEBSty3MgCfDvKuDwroLu1ymAZjKyJ85F+djRzL78clwuV688fgBRtjLo8q/wt76TSOg/FIfcO/dTd3G4aALsniAe67RwKupp5MCeSueD/LRuDz300P/0CCSn+39nQhD0gYt6WltbG++/9x67N2xkTlEFoyubSGsLIZ7l96UK0GQzsC09lg9aWnmippqHHnqIzMzMXtl6p2kafr+f5cuXc2Tdh0worWVcRT3J7SFk5ezKQBGhySqzJSOeD1vbWIZGZmYmNput1wYX7e3tPPfcc3gPFjGhtJrph2uJ9qsY1LO/buvtMtvTY3nT6+NNg4Hrrr+ezMzMHtzrnhOJRFi/fj3/XbaMEVWNTC2rIbvJhzV0dhVsTYCAJLIvxcmafk284feRmppKv379kHvhq35FUTh69Chvr1qFvGc/iw4fZWBtO1GByLHh486cXxYpjzWzvk8yH7W2oggCixcv7pXHD2Aw2UjMzGF2Zs4XvSs6nT5Vuk53oSsqKqJs6zau3XeE6UcaSHaffXANIGgQ41OYVNLM7INVKO1uigsLCYVCPbjXPScUCrFu3Tpq9hUwsbSWOYU1JLeHzimwFDWI9UWYdqSeeYVH8R0+wsqVKztG6emFwuEwFeUVNDU1MamkhsuK6onxK0jnUAbQUQYTS5u4cfcR2vYUsH379h7a455XXFzMrs2byWls5aoDVfRr8GEOn/3bK0EDk6IyuMbNVQUVJJVXseyVV2hqaurBve45Pp+P119/HevhEq7eV8HIyjaiAgriObzAM0VUspoCLNpbSV5VPYf27OXgwYPdpvjpdLpP6AG2TneBKy0tRapvZPjRNpyByFm32nYSAIOq4QhGyGnwYAhFqD56FK/X2zM73MMikQiHDh3C3NjMwLoWnMGOMugqPeR0CdonZZDd7Capup6CgoJeW8kIBAJUVJQj+QOMqGolKhBGOkl6yOkyqBr2YITh1W2YmlqorKzskf09HyorK/HV1TOgsRWXN4g5onabHnK6RA0sYYXk9gBDK+qpKSuntbW1Z3a4B3XOu1BYWEjG0XrS2nxYwx0VrHM5B0StI8iO9YfIq21GbW6mtLS02xQ/nU73CT3A1ukucK2trVgCQWwh5ZxarrsiqRqiqtLU2NSrA+y2tjasXj9x3u5HxDhbMf4Qsa1uamtre21gEQqFaKirI9bjwdDDfQ5EDcxhFUcw1Gtb8AEaGxuJtLaR0u5B6uHrwBJSSWkNQkQ56agrXxRN0/B6vYTDYZy+IJZw5NQLnaFEjx/Z7f1c+7VoaIQCAfxeT8fIOOdpO2okRDAUwh9S6ZlTRwNNxeP24PX66M29gFQlTCjgp9XtIxz57P1NU1WUcJA2txd/sHc2MPRWeoCt030JiJqG0MNBxfHUbob96y1UVeV8PX1FTTvnVIvPg6BpmCM9X8k6Xm/uMByJRM5rBah3Zt5/4nx/N+awck5pV2fs2MzBRRtX8f3v/g53JExE0zgfu+CuO8jbS55k2e4mApEeKEdNhXAdf37gHu784fPUQ68Nsv1tVbz5yEMs/OYjFNV+9u2MGvRSs+F1Ll90I//aVPIF7OGFSw+wdTrdaenNAbaug8C5pQRcyDrOz/N7jl6sZQsdx34+K/EnUBWU9qO88PTTvPbORooqD7L0mcd46cN9NAZ7fh+ad6/m1fd2UBtQeyiA72jB9h5rwVY432fm2dOOtWC3naoF2+PFH9BbsM+EPoqITqfT6XS6XkRDVSHSUMaOresprmrneQxcmTqZiKpxYlVHQ1NV3K3NeLx+AmEFRBG7MxqH3YZZEgi4m2j1qwiymaS4KJSQn5ZWD95ACJfLwdGaOqqrqmiur6bRY8cT9kLIj2iWcbuDWBxOHE4Hmq8Nt8dPIBRGQ0AymomOjsZut2I4Ve1LU/F73XjcHtz+IAgiZqsdu8OBw2JCQCUY8OFpb8fjD6IoKoJkQDbbiYuNQhZVgn4/dS1eDGoQVRDRJBNRcpiwaCKkaCh+LxFVw2ixY3dGEW0zgaYS8Hlxt7fhC0ZQVBXRYMRsd+Jy2tAATVNRI0Ga6mqpwIuCiMnmJMph4zODcmoamhqhraUFr89PMNKxn46oKBx2GybDhTcp0fmiB9g6nU6n0+l6D9GAISqZq6+bTXl9NR67B/rPZdaIHFKsJ7541zSVsLeZ1S8+xvOvv8/BmlZEWwyzFt/L7YsXMDBWouSdR/jWk7vIvv6bPHHPZQRbjvDET3/J64ct/N+v5vP4v/7Lrr0VlP7iXuqFZxl54EWWrNrFxBkuXnh+I0MW3stPvnMzDaue5rllqymsaCCogDVzKPc99BCLLxuD86TRlAZqmENb/ssLz/6TN3eVgWgid+w8brrnThaOzkIiQm3RVl74+5Os3FZIa1s7guwi/9Ib+OWP7qCfTWX/a49z89MFjHDWsKesEdP4xfwhbz+PFiWQHyuwcfW7VDYHSB81h1vv/za3TeqPqIQ4svVdnvrbs6wvrqDd40eOTmfsdffwq7uvJArQlAj+2iKeefhByqtraY0YGTTrJr559zWMSbOfeCSqQrC1mjf+/ihLVn1AeZsfyZnMlXd8jbuun0dWtKXHT4cLlR5g63Q6nU6n610EAQmBAeOuYf5d8Wx6ay+WLpqJA21N7HrzCZ5YVcSYm77PT4anEmwt48nHn+cxv8yvvncNGTPv4fLtP2XJ0udZMnoA4dce4cMaI7c/+ACjBmZw3/XraZH2MuqOh7lrUjoFJQr+9nI21Y/k4T8vIi0xDaHgfX77yhYW3P1dfjAoE8XTyNrHf8Hyt9cwfGAeY/o4uz0UJRykvmw9z/zjNSri5/DsS5OwqH7Wvf48//j9I8Q+8UeGSFWse+1V1gWy+P3j3ybaLFJ/ZDt//d2TPL9zDveNjEeJhKk5spv2q2/gR/eNw2aPwVZwiObCXWzOn8/DT72ExV/NK888z3NPvcLcCT/CWL2N1/+znOo+c/nrg2OxShHKd77Lrx99ig/mTGZqQscY6jUVJUy+/AH+NGMYNB/mqT/8heeXxxN/www+CZk1vO3NvP+3n7N0p8ic7/6eSVlRtFfu5skXX+VnOHnmnlnIgp5/DHoZ6HQ6nU6n62UEBMxpI7n26pkMyRvJLbcvIj3m062jKj53C+uWrsCdM5lLh+eSlppKVu4wxvdxUrx+FZuOhpGdKcy58gryLbU8+9vf8OQ7ReROvJx5Y/NxOFykxkcTGxtLfGYOadFmzJKAZLAwfN4tXDbrMiaNySMmLpV5V17FjLHD6ZOWRlJCMrm5sbRV1dDQ5j/psSjhMBXvvsyOVjvz5o6mb3oaKWkZjBw+AqluK6+sL8MXUojPHcvihXMZkN2H1OQUXAl9cRnaOVDWhDekoiEQssVy5VVXMmv6dKYP749skBCtGVx/y3wmjxnF6HETGT2yP+GD+6jSVBBsZE+czg1zp9C3TyYpyYnEZeRg91Wyvy5AIAKiZMCRMYiFcy9l5IjhjJwwi5vm51GxcycH6o/r+KhF8HvKWb50PbGjJzImP4vU1FT6DhzBoHiJg6+9zgGvxjkMP/+lordg63Q6nU6n610EAZPtk1Zha1J8Fx9S8fuOsmdPJWZ5D8uW1vOBqeN/asuOoqgOCsvbmJ2WSOawCdxy3R6uvfMPMOV+fjZzLDkxpm42LmJ1pjBsZC52p4hRVMgYOoEbbQ62bVnD2upq6mpqKNp6CF90OpHIySbe0VAiIQ5s2Y3fE8//3lpB1eaO7XrrS1AMAjUHDxOZMpGJc2ZzcOdW/vvGUmrqaik/XMy+Wh+OoIqiqGAwYIpPISMxjjiHhaA3jCAI2FKzyI9PQBYAsxWHxYY1FMGPhik5n7mzYti5dSsrl66ltu4oRwoPUOENMSykEVEFDLKJ9D75pLicWGQDYdVM1ujRONds4kBNMyM7i0kNEWqqYGeZh4x9H/K6rxSroAEKh0prkP3tHGrU6J8mYNKbb/UAW6fT6XQ63YVJ0yKEIgI2mxGzSaZzFveUIZPJjEllbKoJowRqRCHU3kLAYMbQUEGrz49KN6/xBQFJknFYBEQBIoE2Dm94ldvv+wu2nCEMHz6c/pdMZ2qmmz9t6i5IP2EvUZQwFpMRm9mMLHeEXs6kvoxLHUDykDQMnnJe++ef+fPKQwwaPYqhw4YxZdBIohoL2Gvo2EsRAZMsIUsnpsoIRiMG6ZPOhYIoIB47sOaSLbzwmz/ySlGAMWNHMHDwYOYMGY63oBBZ/GQ9oighCp2/CwiCARHxszOBKioKBuwmE2ajzLHiJmf0JIa6EulvF5D14BrQA2ydTqfT6XQXJBGTOZEB/VzsTB3FlQvHk5NoR1NC7Fv3HoUeI3a7BU0JUbRlNf9csY/p936X8La3eHPVGgZkpTI02YGEgKZBUDlxopnOeDPYepR1//0Qd8okfvi9exjRNwUh4mf7E0/jDThOOQSfKMlkDczBsCuRqXPmMyM/FUFTqDuyn83b92FJjKVl/2u8vb2OUdd9k4euHUuM00xzdRGrG9wooXDHMJTCSYaKPD44Pu7PR9auYkOtxvz7fs5tE/vgNEN14Trq2oNkHBuRRYmEqa87RLPHT1hVUUIBju7diccSTb+kaGjrPBAZOSaV3AQjcSOmsmDWGFIdRpRQO9s+3ECZ24zTcnEPZ3k8vZ6h0+l0Op3uAiRidcQzef5kPB+tZnNZPX6/H2/LUVa/tYp1G4vAAN6mat5avooS01C++cDX+NbNk2jctZqVG/fhDavIZjNKyENDRQm1bT68oRObbTVNIaKoyLIJg0FGCQdoKdvJS+8dxusPEY6cbOZMAUk20m/OtWSGq1i15iBt/gB+n5fi7f9j1ZurqdHMSJqKIoDJZkQQNALeFkrWLmVHjZ/2QBD1LCdRCgfDqAiYzSZQVXwt1Wx5fQWlgQi+oIKiqKhqhKbSXazevIvSkhJK92/mxde3kTB0KAMTo447FBlzVD/mzM6laMMGDtS04w8EaG8s5/033+L9PU2YjMInsf5FTm/B1ul0Op1Od0GyRccz+aaHmHvkJ7zxi6/yompA8bXjGjiNW76xmGF2P9v+9XveLzcw695bmZIWTfDarzNz/w957vG/M23SMLIzB5AtLmfJDxazu+F5FrUHT9iGJTaLaTNnsWzdH/nB/dtw2EwoIYXMESOwHPFT2+476T4aZBNJg+dzw5UlPPnPP3HFsj9hFX1ozj5cctVd3DUqDqllLrO3HuSxv3+PvW+kIoUiaGYH/Ydkc6TqKL5g/7MK2AbNXsCEfY/x4g9v473UONSwimxPYHCug9raFoKhKEQBElzxrHvmt/z3MT/hkELciDl8d950+sXbqC3uXJuA3RnLtd/+OaUP/4FHv7aYR4xGvB4vWRMWcO/XFpEqn2xvLi56gK3T6XQ6ne6CJIgGLK5M7v7R71jQ1IovGAZBxBGbSFJ8LLLJwIA59/PYdDNxCYkgiMi2JG76zq+4tNFDWpQJh3Mq33s0hxubvJhTcoiJZDD7hhAJUQJmEUSjjZxpC3nmpRG4QwqaIGI0mYlymmhvC+NMSv3UTkkgx/HVh39H0OAgThARZQuTrrqLAROuoNkdREXDZIsiLj4BhySiRWVzzQO/YOw1tUQ0EUGUsdptGDUfbiGW9KRoDAl3sGKkh9ysRABks5WcBT/ikcssJCU56EjOMDLuiq/wxJhFpBtkTJmj+fov/o8ra5tRRRHJYMJqsyH4mwlHZ5MWI5N+z0/Ju17FKoXx+vwgytjjkkmJj0Y2SiSNmssLT40hPjUdwWDEkTaYBx7+E4ubWghGFFTBQGxCMvGu6M/9++/N9ABbp9PpdDrdhUkQEA1G4lP7EJ/a9UfisgYSd9zvosFEUnoWSemdf4kmtV80qf06f485cQWSAYs9mv6Dh3125emf/RMIIJrIGpB33J8knU9RJwAAIABJREFUHLEJOGITyO5qEaOF2MR0YhO7XGEHh40xiccdh2TAmdKfE0fglnClZOBKOfarxYE5zUFCWt9PrSzrk3/acuhqjJZOpphEhsV8smHJaCUxI4vEjKyTLKXTc7B1Op1Op9PpdLoepAfYOp1Op9PpdDpdD9IDbJ3uAidJEhFJQhFFzssASYKAxWrBaDT2/Lp7gCiKGI1GVEkkIvb88QcNIkGTAVmWEXpp93hRFJGMRlotZsLi+but99ZzAMDpdGK02ggYDGg9fB0oIgQMIlrv/PoRBAGDoSPjUxUE1PNwnraZZcImGaPR2GuvA52uN9EDbJ3uAudyufDarbRYjUSknnvwKaKA3yiiiAKxLhdWq7XH1t2TDAYDCQkJBB026u3mHg2CNAFazUaaY51kZWV9HMT0NrIsk5ScTKvVStAgofRgRUMRBVotMo0OOw6Ho8fW29MSEhIwxURT67ARkYRTjk18ujTAL0scjbUgW604nc5TLvN5EwQBh8OBzWajJcqGz9hz56lGxzlQ47QScdiJj49HPI+VOJ3uy0K/SnS6C1x2djZKQhwr85NoMxt6LMD0yyJ7kqMJGA1kZmVhs9l6ZsU9zGAwMHjwYNrTktmUmURI7JngSgNCksCOVBdHM9IYM2YMJtPpzNr2+bNarfTLyUG2WNjYx0W7STr1QqfJJ0usGJiMN9ZBSkrKqRf4gvTp0wd7eho7UuJptMqoPfR00wSB4ngH63PSyB06pNdWMkwmExMnTqQoK419iT03moMqCLRaDOxMjUdMTmLQoEG9tqKp0/Um+lWi013gcnNzGT9jBqs9Hp622cmvaSCt1YdR+fQct6dHFQXq7Gb2J8RQm5ZE/pDB5OXn99qHqiRJDB48mLLSUra5PfzJJDOovonUdh+ycnahtiIK1NlN7EuKozYtibyhQxk9enSvTZEQBIGkpCRGjBjBQV+AOruF4TUNuLyhsz4PlM7zIMlFeXIcQ8eOZfz48T285z0nMTGRadOn83JFJU+JIvnV9WQ3u7GGzm6CDk0At1mmODaKw5nJxPXrx5y5c3tlCzaA2Wzm0ksvpbq8nLeDYQoTnOQ0tRLnDSFqZ3cd+GWJslg7BYlxhPqkMWf6dBITE7+wFmzF186HS/7OE4VG/vHTe2jZ8RZPvv4/0m77AzcPtOM09tx++dvq2PrqH3ipfTrfv2kKfRPtZ7C0Cmobz/3sdxRKuXzn57eTwDm2aGoR3G3NvLdsOTmT5pKXHk3d9ve479m13P3Ad5g7rM+5rP1zEfR5eO9P97M1eT53XXcFmc6eaAhQ8Xsa+deDDxK69FZuunIaLuNnW5l2vPBb/l2ksPCubzJEOcJj/1hC8JLr+fVVXYwM00N65xNTp9OdNrvdzsSpUwirCkUFBexuaGSvx9vxUD2L56omCmC1IMZEMzg3lylTp+JwOHpt3qUoithsNqZNn47JZGLfnj3samhkl8+PdA6VDNVkRIiPY0i/fkyZOhWbzdZry0AQBEwmE3PnziUqKorivfvY1tiI5gsgqGdZBoKAZrUgxkYzKjeXmbNmERcXd+oFvyBGo5HcAQNYeP11bNm8mcN1dRxqdyOFTjbLXvc0QUCRRKS4WJJTUpg4ZQopqanIcu+cSUOSJOLj45l75ZWsj4qitryCmqYmDGHlrANsxSCh2W3YkpOYOno0Q4cO/UKPX4uEaKgqZ+dBkXAkgsHYMaaz1SAi9nDevSBIyBY7togRg3Q2obGA2WbFJpp7JlVADeOv2MDjf13K9/InMiAjBkk24rTbMPbSxo9PUyJhag7t5YgyGk9YBXrmTVskHKRs3x4i+Y0EurndNVcepviQRqNfRTMbsNksGMznt8HkwvhWLjA9c5lroGmc3pyjPZVteAo9EFycak97MoDpXFNvDYp6iiAIxMbGsnDRIkpHjKC+vh6v14t2lg9VURSxWq24XC6SkpJ67SvxT0tMTGTO3LkMHTaM+vp6fD4f6lkGl4IgYDQaSUhIIC0trdemxxzPYDCQkpLCvHnzuOSSS6irqzunMoCO1JPY2Fiys7N7bev98aKiopgwcSL9cnKoq6ujra2NyEmnsT45URSJj48nJSUFl8vVg3va8wRBQJIk8vPzSUtLo7KykoaGBpSznGIbOoJ2m81GWloacXFxn/s5oKkRgoEgwVAIVQMt4CMYDgMdqVqxA8ZwZ/pQtGgrRlEjGAgQDAZRVA0QMMgyRrMZoySBphKJhAj4AyiahoaAJMlYrFZELUIoHCYQiiAoEZAMCBgYNPNWUokhxioRDgXx+IJIgtaxLg1EgxGjJCBoCoFQGA0Ro9mM2WTCINqYfsOtTJZMRGkqSjiAP6wRUTRQw6iqhiDJyCYTVlPH9OiRcJhQMEAoonTcvwURyWDEajGjBX24W5uormumsbmNQFgjNn8CP/r2YOJdUQQDAbz+EA6HDdkggaahKWE8gTCiJGE1m1BCQQKhEOFIxzkhySZMJiNG2dBl3KIqYUKhEIFACA0QRAmDbMRiMSGiEQqG8PsDGGWRiKJ2lLsoYzFJKIpCOBRG1cBksWI0flIxU8JB/F4PrWJHRVaWTRhNJowGETSVcDhMMBAgrKiAgGQwYDJbkA0iIqAoEYJ+P2FFRUPD5/ERUdVP4gtNJRjwEwqFiagd+x0MR1A1EUGUMMalc/1X7kIx2tE0jYDX03FOCCJKuGOfDbIRk9mM0SAh0LFPAb//2DFKCIKAFolgttsxGuUuK1F6gH0GOgKWjgu3O4Ig9EhApx47WSRRPOX6NE1D07Sz2q6mgXosEJMkqdt1GAyGHj2u7giC0GOvH4/vWX8xEASBjIwM0tLSzimogo7AovPnQmIymT4ug87r4mx1BiwXWhlYLBbS09NJTU3tkTIQRfGCuo4kSSIxMZG4uLhzPv7O9UlSz+W0n2+dHR5zc3PJyck55+//C7sONI2Qu5b1K//Dk/9aTkm7xqDxM0horgMyAKjauJxfPvsGWQ++zDcGS5R+9CZPP/MvdhxqRLRGM2zqQu64czEj0mMQw+2UFmzl2b/+jS3FVfgNcYycuZAH7r2ZOK2U//z2T2xQkpF3vU2hmMFlt9/D2JrneazlSv58x2S0Xa9z69O7uWpiLAVbtnCgLkyfKTdw7+W5tG1/kyff2ESLmMg1X32QO6+ZSoq5jed//gP2yEP5zV+/gbBvCT96Yj9jL+nD7jdfZ3t5I1GDJnPzXXfylWnDkAWFhrICVr34HK99sJO65naM9lRGzrmRh+5dgFK0nl//4nGqm0v5+fe+ycbF3+TB4QEW/nYlP/jxD8gpX8XiJdWs+ufvyU1PQIgE8ZXv4N4fPYZ1yl08cecEavat54V/vsg7m/cRlO3kXXYD9940nzE56Ri6eLx7GqvY+b83ePTZZVS0eIjJHsH8G27h5ssnESUH2P6/F3noT5v41nXZLF+5mj1H/WSMW8CPb5/CgdUrePGN/1EbcXDjd37OzXPHEm8A0GgvP8DyR77Pxk078BhjmHntndx8zRxyEx0QCVJ5YBv/efZp/vtRET7JSt64edx97y2MyozDIim015ax/Lm/sHTNHpqEGIaOH4/X7cOldlR+lJCHve+/zLPPr2BrWRtpQyYwJFCJL5KBpoTxVRzgl3/8O4HJX+W5W0bz/i/v5DV3KmP7GVnx2vtUumHorGv4+j23MyrLhUHxU3lgG08/+mc+2HcUQ3IeE2dNo+TlF5n5179x7aiBOLsovwvnrnmOzGYzoiTR0NaG02ZDOsOauKKqNLS14guFMEVFYbFYugw4rVYrdoeD1pYWvAE/ihqFdIY3JkVRqG9tJRSJEBMb2+XNXZIkoqOjkWWZFo8XbzCAzWQ+oyBY0zT8wSCHq6sxmc24XK5ub6KZmZns27WLqoYGXA7naQX+x1NVlWA4TH1bGyaLpdvXjGazmbi4OARBwOP3EWWzIktnfpp6A0HCmkZ6evoFFyCdiwspEDofLrZKVVf0MrjwguKediFWjk+koUR8bFnyFM+8XUD6zJu4pm8M9XvXs3RbLbg6AuxIMEDA58MbUmiv2sZrL7+FP30a370mB7W9is3rNvHim+kMuXMWVR+t4fHHn6EmdRK3fmMxUls5m9a+y2+ejuO7CxNpb21gy7Zipsy9kkXJGQzqF024xIMvECIYDqP5vZTt38K2rLnMW3w3MxqKefa5Z3msbCQDx4zl3vvHcHjjG2z67woGDOzP1cPM+L0+/MaOFnOCPppKd7GkroHrrrqNqQY/m1e/wz8ff56RoweTrdSyeeXLvHYgyNW330eMCepL97Lstb+xZMJYrskYwA03zGXN3mVcd8tdXD59EGr1JtrdXsKIxA8fTZ9Hf8XaijYS4uJwKH4O711HfdDFovwE2o58xO9+9Qi+tOHc9eB8TEorW99ezpP/jiDfeTMj06OROkcf0lRUfwv/W/YiTy3dyogr7+D6FCuNh3ez9uW/49Yc3D0jnaCnnZZDG/nPtlgmLbqDCe3lrHhpKb/3HCCj7whuu+8+yre/x7uvvERKv2yuz48CNJqKC9gdM5+7vzOdUMMh3l7zGn9QTDz29fm4D23hpWeeY3Mgjdu+cTlW3BzY8iG/+/UT/PkP3yYuUscHz/+Ff33kZu61d9InSqNw8zpeaggwTdEI+dop3bOKXz+xDNew6Tx0fTbB2sO89K8aAokpHS37kTA+vx9/INQRB7lbKNldTbM0k2vufQCt6TCr167nNy9n8p/vLsB7ZDP//uvfOGAcxB3fXozZW8Pqt5ez4XAdYwMhumvOumjuwhkZGVjtdrYWFWI1m7GaTIinGSBqQDgSYcehYnyRCMNP8rrUZrMxbNgw3n7rLbYWFWGSjcjHHnan2lpnO4MvEGB3SSmy2UxmZmaXwagoijgcDvLy8jhSUsLB8nLSExIQhdPPRFNUlUNHj7LzyBEy+/QhNja225tyamoqsXFxrNmzB4fFSqzTiXQG5RdRFEpqa6hpbWXUgAHdjsZgMpnIzMwkKjqazQcPMnZAHjazGTi91BuNjmB++6FD+BSFWePGXfTBhk6n011QVAXFW8vLS1dD7gJuu+MrDI6z0HxJJk3Fhfzb9+kFNEJ1RRxqUsgbN4xx44ZjIkBudj/2e6IQlCBbPvgfu6rtfPu3X2NWhh2Dv4E8p8gTuyrxBuI63q6mDOSH3/w6STFOlJYqPjhhCxp+QeSyBddwzaXDkL2VFC15mU2WZK646mqm5MZS0T9A8a8+YF95DQuHfrbToRqA/ou/wh23TsOEnyTRzcH/W872BoVkWzte1cXU+dO5YvYoTAaoKcli76pX2VxYx9WDBjNw6GBs5rWMGj2akQMyqKjeBIAgm3EmDOTSgQbe/uAwM/olYZT8bF+7BmnYV7gkwUjB2v/yzuEAD901n5mj+2MiTJa1nt89/QHvjJ/M8LQopGNPWU2J4Gus4q13PuBo9hX839WX4zKJuHNT0Ur/yDOvvMGcEXeAqiIERAZc/3WuHZOK3FxG86YVvFQRxe0PLeKyHBdNfW18+PAL7DlcfSzAFhBTR3Df3YuZNTiNUFstkebf8/iLS9h/y2U0r3yVd4tamX3vfcyakI0FP9mp0Xxw1894vfB25gR38vraHaTM+w3XXzeGVJtKw9A41r7xIQIQ8LSy9b1VVJpG8dWv3MSluUlo/loat61lWXN3J5xCyNGHm29czFWjslGaSzG6a/nBh9txPzCLA2vf54NSD9f8+mtcPTwJU6CRYXEeVq85ctI3RBdN5NG/f3+mTJvGqlWr2FpYiMVoxHyardgRRcHt9yMbjUycOJEZM2Z0+1m73c7ESZMor6hg6/btrNuzhyir9fRaEzSNiKrS6vUSHx/P1KlTycnJ6ba1VxAEZsyYwRtvvMGz77yDLElYzebTrjgEgkGCikJqWhrzLr+cxMTEbj+blpbGxMmTefXVV/m/Za/jtFgwnmZnF0VV8QYChCIRRo8ezdhx47BYLF1+VpIksrOzmT59Ou+//z4f7NmD83TL79i22rxerDYb06dPZ8yYMb22U5JOp9PpPktTI4Sa6tnn1hiYk8fgeCsiEJuQy6jxQ3hxdfiEzwsIWPuMZ3D0O/zjtw+yZ+M0JowZzahLRnPl2L6Y1VZKaprxZQxlTk70/7d334FVlecDx7/nnLtH1s3eCSGQsMLeQ5CpQt0DHCjWWq31Z63a1rZol9u6UOvCjSIqArK3AUKYSSBAIAkhO5B1R3LXOb8/4mCEZWmr7fv5S8k9N+8ZOfe5z3mf58UMSMY4Bk2/n0HTwVm/m7VGG2lduhMTYiXMasLlOSk8UnToI+NJiY3EYTHi9lmJCbeS2T2D6IRoJEnFHOHArFNQvd6O+ZcnsTrS6Z8Rh1UvA2YibKE4LCqtbjAk9uDauxKpKtnD1vUrqa6qomRvIfkVTqzuAMEzFmzLWO12ho0fycLPVrB3UgZhoXUsWlPP5McycFgC5JUUo+gt7M9bzYJD+aBptDUdxe0+xo7CCrSLe8LXxZxBNUhjQzENTe2E2itYteBDANR2J5WeACWHCmlqbkWR9ehDkhjdx0Go3YzfpScyKoyY+GGkhkegV3SEhEVg0Mn4fL6vx6oja2BfUpMTkCUZU1gMmSmpRKkb2FrVyNGdZXgb3dTvy2N+1VZ0ErQ2VKPoj7Fu+2GSlUoam/xMHDEYm82GzgT2pEGMzo7AbVRoc7s4cGAfYYNnkRLpQKfowZbE8KHd+eqr9tMcP4notFRSkpJQZBmDzUaIIxxzWwt+tZnCA7VochrDByRh1ksYzZFEDp5I78jPMJ5hzYH/mQDbbDYzYsQI0tPTqayspLGxsdM/gNNub7GQlJREUlISNtuZ2/UYjUauuOIKhgwZQlVVFa0tLec0neKb2d0Oh4OExETi4uLOmH2VZZnExERmzJjB4fJyamprCfj9p319Z9vHxsWRnJxMVFTUWX9Xr169iI2Npby8nGPHjqGeY/GMpmkYjUbi4uM7stOhoWd8vfXr4Dg7O5sjR47Q1Hjar52nkCQJe0gIycnJxMbG/qBX3xMEQRA6F1RVNE1F0umOK1gHi8mEwkmfc5KMydGNn81+iqH5W9iYu4ncz9/my/nzSBk2lefvmdxROGgw8G26RVMJBIN42v0EA0FkWcZkMpz2SamEhF5R0H079UgCJGRZ+a7+XyfBGRb7knQKet03ySKJb57LBlUN19EyNn7yIs8t2E1sl0y6ZHYltd8IBh7YxCH92RNMBrOVXgNHYHz9WbbmFZEad4h99kzuSozDJjsJ+FUUnUZjTQ0mnwsA1Q89hg8jrWfyKVNZg2o7QWS01mqqq7+ODdQgWkwWN6YlkuiwU3NQQtIZsejghDhTPvlJunTCfxuNhhMSgYqiQ5b8BAN+PL4gqAGajtZgdHYczqDfR6+xVxLXNZyQSg1NUzAalOPe1YDNpMcDoGkEA0EwGE4oPLQajSiS97THT6coyMfthKTR0YFJU/H6AqDo0SvH74kJk+7MMwb+ZwLsb6qhMzIySEpKwu/3n3PxxzdFHkaj8YyFgN+QZZmIiAhCQkJIT0/Hfx5BL3S0mzIYDOc0h9BoNBIdHU1ERATZXu95FbcpioJef+5L31osFpKTk4mJicHv95/37zIajedULKnT6QgJCcFqtX6vc6XT6b49V4IgCMKPjCRjtNqJMUp462qpdfuItehpczdTXVmFxom9yDVNw1VTQm2zj9h+E7hz8GiOVR1g0YdzeWvRMip/MYVwuxlDVQ0HWrxk2PTIPie1e/J4J6+BKSMSO37tWT6bJEnqPKA65xyOdMprNTpyfa3FK5i3ZDeOoVfzwIzROMJttNaVUTTXjxY8sUNGEO2Ueb+K3khIWh9Gx8qUb1/DF4YmYvqMJTE6DLM+SHREFLIRJl13I0O6xKFIKi11pZRVuQlJCD1hXJIkYbXGYzOa0A2eyi3XD8GkSPjdzdRVlFLSFordpKem48XIJx8C6fh/OPngBKmrrqW11QkhIQTanTQ0HcNFAqmOEIxxYWx3hzP6susYnRaGQQ7S2niUwp1FJGVGIfkisFmhrOQw3tQ0VJ2E311Laa0LQ1BDbzQSHR1LW2kJze6eqJoJAh4qjtTjbj99TCDRyfnXANlCQkwIUukxyqtcJMdZkINttB8toarVR+AMocn/TIAN31VEm83m005RuJB0Ot2/Zf6vLMvfBuX/apIkYTKZMH09L/pfSVGUf9u5EgRBEH4YJFmHLjyBS7Lj+WzfFtbtGcmEDAd1hRtYlFtC0Nr/xA00FeeB1bz0fgFp0+7glxOzScrIplfXRCxbD6MzmOmdmcGqLav5YF0Rtw9JQd9cyhfzP2De3giG9PvP93f3NjbSJimkpHchKioSi9JOWdEa8stb0be1o6kasmLAJPs42tqK0912YpAt65EtcUyb0I3fvfsVRZqdsb97BEeIFYOk0ntQP3RffMyB8gYu6t0Vg+SlJO9L3sttZfwdGYw8LlCUZR1hURl0S3OwLHc9tVePpEeomdaG/aya/z55pqEM7t/le+6pSuX2r1i8fRxdbCm01xezaWsxgaxxDI0JoXb8QNYeWkN+cSWTeyRgktupzM/ljZcXcl2f8YzKzGRAuoMVSz6lNOsG9A6ZgxuWsL6ilZF+FZM1lMGDh/Lhe8vZsD2LVHt3Ao0HWLhhL82G7uc5VhmwkTOoB19uWcCyFVvJmtILc1sVa+d9xgGnH78q5mALgiAIgvBjIMkoxlCufOhXHPnL0zxx1028E+Og3dWOZDCfkhOVZJnIgVczdusBXn7iXnLfjccUaKXZa+LiG+8g0WQnYdpV3FhbxXN/voPNUdFoLid+UyyzZv+JzLhatv1HdvQ7joHjGbYqn7kvPkD5qgxkVyt1zS6iuiRQX9+AN6BiiEogx+HkqQf/jw2X3Mp9o+QT2t7KskLK2KnELtjBPlcK145MINSiRy+FkjbqCn4/dRf/eONvrHzHig03VW6Fi675KRP7dTlhioikKOgjkphx05XUPf0K/3fDlcRHh9ByrBkiMrj9T9eS6LBQ+732VE+EvpXVz97P5lcNuBrqMHa7iIceuB6HXiFkzE3cVNPE02/9gWs+jcKiumj0KGROuYlL08OJMIUy865bKHrwef7vjrU4Qoy0uGSiohT0ehmTPZwBV93CdTse4vNnHmTpm1GoHhcmTUMf+n2SkBLpIy7n1srDzH7hPm78OAkrHpoxYNNLmBXptAsJSdo/2yRUEARBEAThgtIIeN1UHz7Irt17aWrTCI1LJlrv5JDLytXjh+KpLCZ/zyFs/abQNxJa6g5TuKuA2pY2NElPZEIa3bK6kRIVgqz6aGmqZefW7dQ0uVF1FuK7dKdvr+6Y1Gb2b9tJpRLHxMHdMRr0+NtaqShYzy5vBiN6JEDDQRbtqmT8uNGkRIXg93ooXPoFTQl96Nsnm3C9RpvzEHmbyjClZTM4I4z8les5pkQyfGxftPpiNu9sJCmnDz3jwwGN+kN72b6zmOjRPyHT0kZrzSG25hfg9EnoTDai4xOwBWo57E9gxJBsHIqPA5tXs+uIm9CU7gxON7M07xBDRowgK8EBmobX1cj2Tbkc8Edy9eQhmJWvF2cJ+GipO0LxnmLKqhsIyjoskank5GSTHBOBsZO5422tjRw9UsLWwoO42nzIljCSMrLIye6C1aBRV7qX3LxKRl81nkiTkaC7hYPb1lKiZDMyJ5UIs0yguYZlmwqwZ+Qwoksk+9cv4rAcRYTSRmllPX7ZQkbvvnRLS8JhMUDQR9PRWvYW7KKirpn2oERoVALde/WmS2wYJh20e1yUFu2kuLwaV9BAdGIK5oYDyJlD6JedjlUKUF9RQtGe/VQc82AJjyEtpJ2qNiu9Bw8jXj1G7vYCAvG9mNAjjkMbF1NCHP0HDiDaLCMFPZTu3U3uAS/TLhuGt66cI9X1lB+ppNXVjmI0YjM28PCv5vP7+a/yk4HZdPZMXwTYgiAIgiAIgtCJ/Ute44lPtjB0+l2MTAlB8jey4+M3+Guenree+w05mQmdLvoupogIgiAIgiAIQieis3qTE5XLC/fM4EWTnoAK1oRsfv6r35CaENlpcA0igy0IgiAIgiAInfK3u3G1NlFT30RAVUHWYbTaiY6OwWbSo1c6n4WtzJ49e/a5/pJAu5vafTtZtnE7bsmCIyIE3Td9A/1teGoP8NnGPZhsoUTY//OdHzwtR9m9aRVlbivhdgvGs/SS1FSV+tJ9VDV5MIWEoZfPofuOGsDjcrJl83ak0Ahs5hN7LxL0EmwpZ/G6Avw6Cw67nrajR9h/qB7NZsVmOPtDBFdDOQU7C6nETpTV+N1ypv8BPm87W9d8SUW7EUd4KIYz9PxEC4KrkvWbd1HeIpMa20n/a62NQ8VFrNlUSlxqLEadcu4dj/7LNFeVkZdXgCUmFoNOOeeVMgXhn6EGfHhbG9idn8fWbdsoLD7AgSNHMYaEYjIa0R9/v1EDBNpbWL9qJRUumdQ4xwnvpalBgp5j7MzbTVlzkOTYsPMcjYbzaA37C7ZTakgkwihj+DGv+C0Iwo+eojNgtoYQFR1DTEwsMdHRRIaHYjbozhiPndety+dpYe/Sd/nlvffz1ze+oK61HfXrBLjmc9NSsJR7Zv+dLfuq/rm9uUA8TdUsfP1J3ly5l9a2s/eiVlUf6159jLeX5NLsO7d1aAJeD/XFa3nqzUUca3FxSseWQDvBI7k8/OizLN9Wit/rpmjFBzz96ucUN7vOaT+aqwp4f86LfFhQhTcQOKdt/lXa2zy8/9QfmLN0Jy3es/TBVgPQuJc3Xn6Zd1bvP81rWsld+jH3PfwmlW3tnNvSNf+dnE3VrH71KRZvK8XlPb/e6YLwfXndLRQsfoU//WE2Tzz/Ci+/+Ay/+91veW7eCiqbT1yT2u/1UF24kt/eew/Pfrr5hJ+pwQBej5PK/IX88TdP8u6yXecxCg1NDdLudlIJmd1CAAAe0UlEQVS25TOefORPvHXQT4tfPGAVBOHH6XvkBjRkfwtbln7CG+uK8B/fAP0HJiQmnVt+/xwPXDMIh914lld33OBLDx6ivsl5zr/jaEURi/7xNj0mTCUuPBTdWZKOAZ+PmtISappd+M7QP/G/gqyHmIE8OHs291894D89mh+82NRMZv58PPM+WMSh6sZTFhIQhAtO06jat4V7HnqNblffxwcfzeejD9/lvfuGsvWjD1iw/rggWVOpLS/ib794mAPVx066PjVcjbXkL/+AW+99gk37j5zfONQgAVcDmz97iYcefpL1BxtQ/9vvj4Ig/Fc77yJHSZIIie6OPTTIkldeZWiPxxiREsaZFw8Hr9vJls9f56vGWCZOvZi+CWG4a/bx2ZL1NFm6cuv0idi/XYZSA7ysfmsu+7020qP87NxzGI8uhOxBIxk3tA/hJj1SwENLYw0bli+lqLQWr2whrmtfJo4fTnyYDb/zGNtWLaQl40quHBSPp2YrT69rZkJXE8UFRZQ3eYlI7cWUiWNIsMvs/PJj1h6o4ujRL3hRpzDz7hmYagrYvO4rCo40IOkspPQdwUVDc8iICUMKejiwdQuLy8zc/3AP7BYDwXY3zsYqVi9fzt6yeoyhDnJinbjbfeBz0VK4gnmrtlPWeoiPXw8n7Ge30C869LRzeL4RbHfhPlLIhy8v5cgxJ/aETAaPGUv/tCisJh1ej5OKojzWbdrO4TonenskvYaPZ3jvNKLDrKAFqSopIC93E0WHqmgLgDUunVEXXcTg7FRM1PHJe19yOBhBjGsvRY1Wxlw6keGZkRSuX05uYSkuyU5CZg+a3O0EziW9rwXBWcH6VblIaSPJTgzD72midM9OVq7Lpd6lEt2tKzWVHR/W5/KW9fu28tEnSzD0vYTLhvfEoffRULSSt9c3MGDiZC7uk3baggPN78G1by1PL69l/KQJDOmZhAL4Gg6xbv1XbJb7cf+lWVg7mbYT9Hpo2PYl76wtotnjo+MaVWlr8xIS15WZP72NxBDjd1OmOlGw6E2WV0pcP306MTY9ehma6yp469XXiB0zg58MTiEsazzRVfezdM84uiVFYTeI1Sh/fAL4vHXMmbOCmC4h1O/YSQVR3HTzNcTrW8lduZw9ZQ20tvuxRyXRe9RELuqViN3oZ9/uXF7dIjM+vpWSwgJq2jQcmQO5cvIw0mIiQVVprChmy/r1bNlXhWoLY9iADI5U1NOSOY27h0Zj8DZRWVLI4mUbaXC3owuLp++IkYwb2BOTTj4lqxJo9xPfbzATRw0iNioCg2rBNvEGkl+9l90l9d++rrWymK8WfszO1KkkNH96wntoagsFaz7lhQW59L9mMt55e4//KdU7lvHJlzuxTLiFy3tEYgs0c2jbSj7M8zDh2isYHKlS9NFTzF1fS9Kg8eh270TMkBIE4cfsewTYMubINMaNSWH30iXM/eBLMu6cSqrlzNGRqgYwqi5WzH+VWl0oiVcNoHDlR7z/STED7xqCQeoIWY4PsHevXMT8vU1YEmOIT4rHV5XL+q/yOHrvw9w0IoNAUzlfPvMXXtlSTXRyImZ/KxtWryD/8M/57cwJ2NzHyF/1OTXuQUzMsqGVbuXd19exzRZE53Cgb2+h5Ivl7PdaeWhqb7RgABk/AX+QQNALrgreeeIxlpe5SE5NRHLVsyE3j4JjD/D0zBHIrbVs2X2ApoQh9I+3YtJLtDZUsuTZPzFnazXxCclYfTvY5HTi8RnR1CCaJhMMqHjbvKhoBAPqOQWW/rZm8t+fQ1loDCmRRqpzN/Lp5gpef/xOUu0KTUfyeerPj1PsNJKUEI67djNLN2zn57/5DVMHpGPTjrLgucdYuK+V2OR4ZM9RipctI/9QLc89ci/JpmPkLlvM0nI3SbpWGpUUknv2JK55I395ei6esBSSQyU2Ll/BkSMt5JxLdkkLgvMIa1auQhmcyh1TenKk4Cuee+Zldh/V6JoYSUH+GiqOBQlybissSRYzxtLNPL+9ka6Jv6CruZnXnnmRrwzDGTRFd/xF1MlFGESxBtk4bx5qXDI53ROw6GTqSgtY+vkSWi4fQjDYed5YU4OoAQ9+jxuns51gwI/z2GF25hVhzLmEGbdqp04POknAW89Xn2whafQULuniQKf4qC0v4K23lzJr1E2oshGDOYo+MUG+WraJipE96GH4z9cyCOdLJRA4xsJPPkbS6nH5FNr0PZlyST92L/6QF1ftJSU5BRtuNn21jnkL83jj/WcYFB+k8uBW/jF3L/usRzGEhaE6Gziw4AtK/c/w15ljCAm0smjuy7yxfAf2xDRCpRZ2r/mImmAE8lUjmTUwgtp925jzxDNsqdeTnubAtW0T6/ML0GY/wug0B6Fm/XdDlSQS+43niad6kpAUgUmRCARUPM31uANGksIsoKmofjfFO9ayZLeP2++/m3n3rD7pzyyAXx/J5JvvYvIQL5Vrq7/7kQZBQxj1RWv4YDv0fPZm4tpLePe5l9iQfjvX6VVUVUWTzFxz532EHy3ik7Ii3P+msyUIgvCvcN4BtoaEpljIGDqecZFubnjqZVaM6MOMAfFn3M5sszPk6llM27iVJYve4cvoRt579gvSbnyQn47rjamzBK7qxmcO4ep7/sYdozMI1uzkvZf+zuPPf8Tk3ndxaOmnvLB0L5f9bS53jM0iNHiU3UvfYsYjL7O0RwpTs05ctUfz+2g5WEqXp1/h19ePJQYn7/7hNj7JXc/BSwZx8fW3s2nBPEpzpnHPL2YQfvBzFpe1Mejm3/HczSOR2+v5cM7r7K3dz1H/MIxHDnHkaAtRwwZjkyUUAhTnreWlhTu55PF3ue3inphbylj45K/ZXO1BM4US2qsP1128lOaSVK697UaGJTk62fFTtfuCtISOZO4rv6VnjIkDGxdy950P8tbKi5g1QE/eK8+zNtiDf8z5DSMyo/Aeq+CJe27h7dc+IiH6Vga41rK63s7Vv3qAWVMGYJCCrHv9AZ5dsJe8uibiEoLgakSn2rj1mY8YkWSlvSKfuX99H9/AW3nlgWtItwco3/wR196087SB6JkEgz4WvTWHQ8Ys/vja7xmXHk711vk8MvvvfF6pndNUo6iEDK754x9ZdMXPePOjNEZEHePNre38ce4MhmTGc6aaS8loQ584luHpT1O8rYDGy0ZjthsoyFvD4UAED41KwHSaolOd2U786Jv43eiO/29zNvHFE7/kUPMILrvtDtIjzWedb5XSYzADkvN4cfkhRt0agkU6Su3+r6hMn8yglDDMepmATs/Q7mms2FTApiMeeoSLAPtHSdPAeQB3n2t5avYvSZUlAvsXs7zSzYC75/DXyzMJM2nkL3qLydffT+mh+xgYHwe+Nti9hiFvfMgvrr4IXUslj900jV1bN7DjJ4MZ7N7CK4v3MPT2h/nrHZMx4+ONX9/K3xbtIxwNNA8fv/oqG11xvLbwNbJCdHgq8nnr708x/Q/zWf30dAalRJwwVJvdTobd/s3AcTdUMP/Rh2mIG8P0AT3RVD/tlZt5c/52rIOvYEa3ML40KRxfDSLJkVx0xQ1omo+gf+uJhZGSRGJWH66adTPvXfELvvwiAlvlVuYfieCd56bQNSkKgwT9b/8TAOW5lf/acyMIgvBv8L3rsw22WHpfeju3DZSZ9+bHbC6pOnOAJClgjOKae35BH2MVj/3uz7R3m8j0KaOIsZwmzpctpGYNYFz/FPQ6BUtsGn0vGoalcBP7j1ZTUFKNJ3I4l43sSohFj94WSZfRVzEm6hiFpdU0tZ1UMqczQEIfpg3qSqzFgKwYSeuegaWtneaTigclnR5zbDKJgWa2vPssf3rxXdYV1dFzyjXcdss0IhVoaarF5ZbJTglDkiTwtlBVcZij1j6MG5xCmEWHLTyKKVdPItZiPmPwdzb2iHgmzbiStAgzOp2B6PTujM6Kp3znLooP7iG36CgTpk2ha4wdnaxgsDq4bPLFGJv3s77Mhy1rKk/96VdclG6ldF8RW3PXsG3/YZpanTQHAx3nTmcjLrUfg3smEBXloK2ulLwGL5PHDSfSYkZnDCWq52UM6RGD+Ry6n5zID1o1O4tayMgZQO94O7IkEZ09iCEjBmFWpHN7JCwbMUdmc9/PpnJk5VvMeW8dlzz4KFN6J2PWne1ylpBlA6PGDiZQto+V5Q2o3kryN5UT2qUPGXbzOXVocTfWULb2H7y0poGJs+7m5lHdkDl7x5mQhK5k9e9O2bx51Ls81FQfIW/VbqZdPY6kMBsSoCgySUnRtHmb2X+46RwOiPCDJYWTM3wMfRMdxCU6iB98KXf95rfM6qVQU7qPHZtz2ba9sGP1NZ+/o8BXNkLIcAb06kKIXsJgsjCkayRSoJ2Gumaa1n7MsbQRTBzWByMSYGDKpFH07x4DagCtNZ+C/Q1EpaTTXrqHPQW7OVjrISwmAW3DB1Q0NJ9hwBoN5ftZ8OpTvFhg5/qZ1zK+Wzjullqe+OPz+BP7c881I77foZCNZPQbw8sPXMyKt1/gvY2HufK3j5AdG37WuhVBEIQfo++90IysNxHiCOH6m2aw+4l5fPiJg7CcdoKnfU4ugaTDHpZIdlY8767dQ+LlfYkOtWA8bWCkIyQ0jPAwE7IsoTOaMNvDMbU30tTspsXdTiC8G3E2A3pFRsaAwRJJtF2ixO3Gd3JLCkkBeziRJiMmnYzPJ2EymZBl/6njlnXIMX158P9u5sMvN7F79QK2rfyC6K49GTV+AlPCBuBpd+EPSITYvp4nG/ThdrvwWuOJNHeMSWfQE5qcQoRR9/2/zQAGo52YhHD0ioIsK+gMZuIdNrZ7WmluaOOYN0j/2DiMBj2SJKEoOqIdkchykPrGVvweHXvz1pC3+wBObxBVgqYjR1HlEFTt6+yxYsQc4iDMasAAuFwu2lUNR0QYer2CrOjQGe04wkNwn/e3BRWNFo61ysTaLFiMepDAaA8hLCoSveQ6t/Z8koyiGMjMzsQRdHNQi6J393RMev0Z5z9/Q5YVeg0cRfTGd1i8aDPjxzrJa7EwqncOdqPC2d7C726kZPtq/vbsQtIm3cENw7sRE2o5p7HrbQ4yMnviqHmcHWV3k1m/ndzDQW78VSZ2iwGJjhoHS4gZWfXjdrafyxERfpAkkG1Eh5qwGnTIErR5minbuZEluQW4vT6CmozzWDUSEhpf/w1KCtijsRk7rmdVkrEbdeCSaPf4OFZWgc7RD73J+vX9RCIqOozIcCulmgrOBpxBP/vWL+fl9tKOoWhBPG1t9OwaglHu7JavoQb9HNm7jRUL5rK40MPlD8zmumGZOAw+SrYuY0HuYUbc6GHXxhXsbndR1dCIr3gbS1alMm7M8LO315QUDAYLOReNxDZvC9XWofTtkdZxP7uwB14QBOEH4Z9aydFosdFr3FVcu2Ejr21YyDJdJl7/6RqtdXTpaK3ZS/7ualK7JVOZv5ID1QPJiAvH1GmQreH3tuHzBcGkoAYC+Npd+CQbdqsek1GP7G7CGQgSrtMhEyTo9+BsC2IyGzilblCSQFGQJOnbDwMJiVNTpxqaJqGiJ3v8DTwwcAK1R8o5uK+A+e9+yLO79hLf5TWiJQM6WaP9m3Z1koLRYEbnacQVCBJUNWRVxedy4g2cOAVC0+Dbf9G0byvy5dOkcVXVi9Pj7QiGNQ014KfF5cUQbcVq02NVJFpdToLBYEf5nabicrtRNTAqXg4ue5tHX9rIwClX8JPROcTFRNOw+0Nefavwu+pCWUHSffdFwGwyoQPa3B6CQRVNU1FVP36v7+tNNEBDVbWOY3rGFLQEmLCZNNra/PgCQVAUgj4/Prf3u2PzdbCvaSDJ0qkf2ppKwO9l15Z8jioOEs3tzF+Wz5SeMYRaDOhkvh0P0qnbS7JMTM++5CR/yT+WzOeLRj/BuBx69ctEL3XsC53ti6ahqQEaDhfw/nufUBA6kg9nXkpKbMRxTya0jvOqgdxZpC6biU7uwoi4NvbvzKf2UBFN5nRykh2Y9Tq+OaLedh9ICnaT/tT3EH48JAVF+a6Z/v4Nn/D8y4sJjpzBzElZJMbH0FqygY1fruHbF0kSyPKp9yRNQ5NkTI4wgqUuCPi/LTfwtPnw+AId2+itmBQrPUaPZeb00SiShKb6Cfj9uAMK/ZJDThlmwO/F2XCQN5/5C6urrFx1573cddlg9DoF1VWNu7KIoM7Lsvf+wWpFRlWDVFfXYqqbx98CHgaMGEzU2QJsLYivvZkNHy/GHxZLqLeML5dv46Lk0Zj1Z/9iKwiC8GPzzyUPJBmMDibP+jmjk+GVuUvw+HydThXRgn6CrYd5/4W3KLX14I/PPM1gbwGfLlvHoWOnKWdRPZSX7aPgQAP+gIqrvopDW/Nx9xpIVkwC3ZMiMddsZF1RHW5vAL+nmYbiVWyqspKRGE2Y+Xx3T0aSNIJqsGNRndx53Hbbfczf46Jbv2Fccu3N3HHlMEKDrbS2eAgNjcNiDrK/3IWmaWAKIy45EYd7O+sKa2nx+GlztrJ9zQYOt7UR0Pg2S6l5gwT9HdGYFvDicrpwtvlOOzJncy2rVmynuc1HMOClqbqcDfuriOvZne7ds8hJtrF2zQbqmt0E1SC+dhcbNuXiU2LpEy+zc/MOTKn9mXTZpVw0tD/ZyRE07iumyuVGPc106qjUrvQJNbBu6w6a3G0EfS7cdTvYVVxNmzdAR0Dpx9nSirvNe5a2cnokksnpbmH//mJK65yoqkZLRQnFBbvxBL8uElQDeD0uGl3tqJ0MTPW5aK3MZ868LWRcdx8P3H41jR89xoL8UpraA6jBIB5nC662dgKdPk2RwBDLwP4Z6OvzeOXTHST2HUz/WBuqGsTV0oyn3X9KwaIW9BFsKmXus0+x0xnL80/fT7fo0BPnmgb9eFxOWl2e0xY8RkQlcNsV/di7bgGLi2oJHzmNeJueb75fBoNBKivqMRispCSHn/GICj8uRTv30aikM/Ou6YwZNZQeyeH46qo4pmkEOHsNgs4WSuyYqdhKtrDrUCkdndJVNm8uoPBALUg6iOxHerSOxpYWErP7kdO/P70zYmndu4ZHn1tKaaP3pHfVaKos4e37bmeNM517/vw4syb1R6d0PJWTLdH0vu5vfLVlC9u25rFl82Y2rl7G+P6Z9L/5Tyx55xmijIazfpCo3lYO5q3k15+UMelnD/OraT3Je+9xciuO4gqKdnyCIPz3+acy2Hyd/Q2L78GUq65kXcHTNHeaxdRoc7ey+eM3WFmlZ9Ss6xmY3Rv7T6/kyQ+X8mZSV/5w02hsinTSPGUJ1+FC3nnpGfZ1iaat5gCFZS3cfOtMokIcDL54AtN2F/DpU49yuHc3LMEmDhQWEH3xNMb37YZZqj2/vZEUEpMjWL55KS/h5JorRxOj+4Klbz1H464srJKbwrwDOHoMJysljEh/CgkOGzu378J9U28UnYGs/iOYPm49y+c8Tn1uN+z+evbsP4gSAFkCnd5AXHwi7hVb+PCVuRhn3UBO+yFe/nQ9uuzJPHTtoE4/rHSSRqBwAY89VkF6mEzZvj14uk3jmot7kxwhMfnWG9j45HyeebKVbonhtDdWsmWvlxE3X8FFXRJxDs1B//pWFn7wFlXpDlrrjvDVulI0xUFdk7fTnrMRqX259pbLeOTdD3iqZR+pYQrle3ZS4YWesgyqn6CnlOcefpPY8Vcw/bIRWL5ttXjqtaIoJqbcOIPSNxbyzF//Qr/0KFy1e9l4qAmdHIUkgbexhvUL3ue9xiz+ftcEYkItx72HSkPlPt55/Gk82ROZOWUoXYwt3DJ2BV+8/Q7do+5iSJKReS89QXPSWG64fhLpNlMnQ1FI7DGAydmRPF0UygPDMggzy3hcVbww+69YJ9zJrPG9sR23hFybs5m1r/6d91cXE54dwob3XmXr15k3a0Q8Ay6bSj+tjPfeW0yZksVD915BiO7Ux98GWyjdpl1N8JPf02rtyy2TczAq8rfHLBAIsPPAYczRIxiYZD3j9Sr8uHTv04eI/CW899TzlHWJwN9YTd6mzSQZZJy+ICeXjJxM0pmxJo7jqv7LWfzq8xzd1ZsIyU3x+jW0yWbCLDokJYrLZ/yEI//4jEf/+ChZieG0HyunYH8NA6f9krToExuqakEXJflLeX55IabsUBa9+jhbvv6bkyQdPSdcxcyJg4j4ZhkBTcOr19DpdFjMZkJDTs2In0JTqTiwi/ff/RzHFfdxyZhhRHhiOLT3YV584X1SHryJfqmx/7MruAqC8N/pvAJsRW/EFhlHWlI7EccFLnprGN2HT+L2y3cT2KcjIuTkwEBDVVvJ21JA9MRbuWZMH6JDrIRM+AnjiqrZvGkNlVcOp1vISY/EJR1RKVkMjtXI27gaNTSNiTPv4sqLB2Az67F16cvtf/gzIXPmsH7TKtqNEXQbdDl33zCVrjHhqMecxKV0RXOEYDZbCIZE0jPDh83aMXZZ0WGPiichtgmHzYQsKwy66ma2vfQuhQWFTJz5c+64/24Wv/sha1ctR9NbSB96KbdePYWukWZ0wSRyMpNZ/tFG9jdeS59IM474rtz4mz9geP11Vm5agxSdzqSfXI7Hv53YcDs6g4meYyYxJu8gOw/u4UBDGz2UVgp270bT9en0uJtCIkhKy6bL6JEcW7GIVTsaie81kgdvupG+CeHYzTqMA6fyuztVPliwknVrdmKNSmHyTx/g8lE5JEaYCU79KXc2+Ph07RY+LzYRnZLFdb+8n5L1q2hq1FAUC3EJ8QSjolHoCJKtEdH0nnQj97o1Plq5hdU+G92HTeNKm4QrJgKTrqO3dMHmPJq6DMGvwglNqCUZjKEkJsRhiA1DlhWyhl/KL/QW3pz7MWvX7CWh/1gmjk9BXyhh0evA66eytITlJXo83otO6rqnUllcxJY6lan3TadbUhwRcjgz/28Wu37/KZv3HWFAdDyVxfmUurswxecHOgmwAZMpjD456URFDWFQbBhGnUSrz8PezRsxZ16B76Tkuar6qaprJSohnrbGCjauqUL7ejqLPboL4SPHk2PxUFy0h21+Hd7TpLBloxVT+gRGD5jHDsdFTO7q+G5akOrH1+5k22E3Xa8bTmbo2RZHEn6YJGTZREZGCrFR4d9ev33GTuUOp5c5C9ezbJ+BkPhMRl11Hb3lAEG/H00yYLU76NUdQqwd517W6bEldCFBiSTSrCCbQpl2w3R0Cz5l7bo1EBbDiH4DqSosxxphR1H05Iy8jIeMNl6Y+ykb9rfgtyYw7JJbuH36CCLNJ93y1Tbq6p2EpGSgtDdQvPsoxd/shWxAyhp7yt7Jio70jAxcsVGd7TmSbCMxMQ5r/DfdSoJUbl3DITWJ2Q/NICnSii0gM33WdHY8+SVrCybR97gA2xzqIDolHZ9VxijmjgiC8CMladq5dGH+d1MBJ89cfwPbbAN45NnZpFmlH2S1eUX+El56/O+E3/Iss8ZkEmkznH2jE2iAj0//8Rwb9EP4+8xR/4ph/ssEAgEWvfg36qOHcMO147GdNoN9zu9I0c4t3D3/MPN+PZXYcPvZNzmO2tZMS+6bPLYnldtumkRmuKWzV1Gyfj4vP/kKoXf+nZ+PySLKasDramXlsw+zr89NzJrUnzDD+RdybvjkHV7YBK8/fiN2/XkWcPmaqd23lKsfLeAPj97F2OzE0y6aI/wPUj20N+5gzgflDJ10MUMzYwFY9fz9vLjiMCOf/oCfddFh/SHeKAVBEP7H/JNTRITozIHcOOtyfrtoMVf1m0WYNfL8vgioKt6aYkq9SVw5MftfNs5/jSCSWkOFx86AvlmY5X82uAbV46SxrIRbpo3GZu48+3wmPp+XpTvdjJoymHjryRlglUCgkSd/9jMWF1ZiSRzKY/0yOro0oKHKAQ4qGUzqk/Q9ghQNXOUcrPNy5fQpWJVTV8w7m7qaI3w25yMmX/treiVEiO4KwokkA5Ixgdr8J/nN4nkkJ8WgeJopq2ik+1U/58ZUHaZ/pheoIAiCcMEos2fPnv2fHkTnNNxNzYSmZZPTpztWpZNmHz8AOoMeU2QKalM9Ed2yibWZzq8iXtOQ9WZ69ulOrN2GUf/jyllKkpm0nr1IiAz9Hr2xT6UFA8SkdKVLXBRWo+60XVVOR5X0RKd2o3tCBGaj4ZRzoWkSR6vLMcT15JIbbmBkt1gMikxH0xEDqd27Ex1u/377IunI6NWb9KhQLHrdeV+vbXXl7G0KYepPJhATYjmntoPC/xBJQtZZiYuLwKqHoKpgC49l+KVXM33iUJIddtGNQxAE4QfiBzpFRBAEQRAEQRB+nMRTaEEQBEEQBEG4gESALQiCIAiCIAgXkAiwBUEQBEEQBOECEgG2IAiCIAiCIFxAIsAWBEEQBEEQhAtIBNiCIAiCIAiCcAGJAFsQBEEQBEEQLiARYAuCIAiCIAjCBSQCbEEQBEEQBEG4gESALQiCIAiCIAgXkAiwBUEQBEEQBOECEgG2IAiCIAiCIFxAIsAWBEEQBEEQhAtIBNiCIAiCIAiCcAGJAFsQBEEQBEEQLiARYAuCIAiCIAjCBfT/cBGGEO8iGn8AAAAASUVORK5CYII=;" vertex="1" parent="1">
          <mxGeometry x="170" y="210" width="728" height="373" as="geometry" />
        </mxCell>
        <mxCell id="9u2KphtgkhiFbMEUW20I-2" value="" style="rounded=0;whiteSpace=wrap;html=1;strokeColor=none;" vertex="1" parent="1">
          <mxGeometry x="760" y="410" width="140" height="140" as="geometry" />
        </mxCell>
        <mxCell id="9u2KphtgkhiFbMEUW20I-3" value="" style="rounded=0;whiteSpace=wrap;html=1;strokeColor=none;" vertex="1" parent="1">
          <mxGeometry x="710" y="450" width="140" height="100" as="geometry" />
        </mxCell>
        <mxCell id="9u2KphtgkhiFbMEUW20I-4" value="&lt;b&gt;其它可学习参数&lt;/b&gt;" style="rounded=0;whiteSpace=wrap;html=1;fillColor=default;strokeColor=none;" vertex="1" parent="1">
          <mxGeometry x="710" y="460" width="120" height="30" as="geometry" />
        </mxCell>
        <mxCell id="9u2KphtgkhiFbMEUW20I-5" value="&lt;b&gt;重建信号(Lidar-like)&lt;/b&gt;" style="rounded=0;whiteSpace=wrap;html=1;fillColor=default;strokeColor=none;" vertex="1" parent="1">
          <mxGeometry x="170" y="550" width="240" height="30" as="geometry" />
        </mxCell>
        <mxCell id="9u2KphtgkhiFbMEUW20I-6" value="&lt;b&gt;激光雷达信号(gt)&lt;/b&gt;" style="rounded=0;whiteSpace=wrap;html=1;fillColor=default;strokeColor=none;" vertex="1" parent="1">
          <mxGeometry x="440" y="550" width="240" height="30" as="geometry" />
        </mxCell>
      </root>
    </mxGraphModel>
  </diagram>
</mxfile>
